<svg version="1.1" id="Layer_1" xmlns="http://www.w3.org/2000/svg" xmlns:xlink="http://www.w3.org/1999/xlink" x="0px" y="0px"
	 width="100%" viewBox="0 0 791 168" enable-background="new 0 0 791 168" xml:space="preserve">
<path fill="#000000" opacity="1.000000" stroke="none" 
	d="
M369.000000,1.000000 
	C409.354218,1.000000 449.708466,1.000000 490.172241,1.019139 
	C490.162109,1.687023 490.042419,2.335767 489.680664,3.030856 
	C489.127869,3.262106 488.967163,3.535254 488.650604,3.944782 
	C487.932343,3.981655 487.519928,3.970388 487.016388,3.698861 
	C486.580994,3.612163 486.236755,3.785726 485.508026,3.979262 
	C483.067383,4.629292 481.011200,5.259350 478.553223,5.938319 
	C474.774414,6.959534 471.397369,7.931837 467.693451,8.904708 
	C466.550873,9.260364 465.735229,9.615451 464.689331,9.976671 
	C464.459076,9.982803 463.998962,10.004615 463.906372,9.823709 
	C463.542999,9.763440 463.272247,9.884076 462.652863,10.001737 
	C461.553925,10.392725 460.803619,10.786689 459.688171,11.226636 
	C457.131134,12.735326 455.085022,14.513686 452.721710,15.605465 
	C443.076965,20.061041 434.629272,25.825190 426.692230,33.162441 
	C420.619080,38.776634 417.499847,45.706108 412.622559,52.146240 
	C411.552002,56.861214 410.858826,61.429981 410.090149,66.461029 
	C410.065643,72.281578 410.116638,77.639847 410.092773,83.397026 
	C410.402069,85.861992 410.786163,87.928055 411.093262,90.399361 
	C412.329712,93.574715 413.643219,96.344818 415.006897,99.420807 
	C415.367889,100.475006 415.678680,101.223297 415.745422,102.040009 
	C415.669861,102.319275 415.838379,102.530136 416.237854,102.827347 
	C416.468842,102.913696 416.951141,103.016861 416.992096,103.366837 
	C418.650787,105.826157 420.268524,107.935493 422.023682,110.360771 
	C425.425049,113.828331 428.688995,116.979942 432.077209,120.435837 
	C433.138947,121.526436 434.076385,122.312752 435.064575,123.440094 
	C436.663116,124.619507 438.210938,125.457878 439.777039,126.297501 
	C439.795380,126.298744 439.759308,126.314873 439.968994,126.580322 
	C443.418915,128.575821 446.659149,130.305862 449.957672,132.276733 
	C450.344116,132.678680 450.672241,132.839783 451.278229,133.040833 
	C451.761230,133.384430 451.966370,133.688049 452.134033,134.259628 
	C452.431946,134.365860 452.767334,134.204117 453.320496,134.031586 
	C453.538239,134.020813 453.969086,134.087845 454.131836,134.402313 
	C455.836945,135.576202 457.312073,136.602615 458.937042,137.256958 
	C461.551941,138.309906 464.265686,139.117233 467.000671,140.381577 
	C473.362579,142.192963 479.661499,143.651108 486.121307,145.416779 
	C487.190399,145.751343 488.098633,145.778381 489.335266,145.872437 
	C490.106781,145.901337 490.549805,145.863205 491.299866,145.960907 
	C492.761871,146.748734 493.916870,147.400742 495.125702,148.357422 
	C495.298035,148.830933 495.416504,148.999786 495.465271,149.622711 
	C495.409058,155.180435 495.345337,160.287125 495.543335,165.383621 
	C495.565704,165.959549 497.063568,166.478165 497.925293,167.350494 
	C497.982208,168.118439 497.991089,168.559219 498.000000,169.000000 
	C455.312439,169.000000 412.624878,169.000000 369.468658,168.531342 
	C369.000000,151.472794 369.000000,134.882919 369.000000,118.000000 
	C246.003098,118.000000 123.501549,118.000000 1.000000,118.000000 
	C1.000000,95.312439 1.000000,72.624878 1.468657,49.468651 
	C124.229202,48.999981 246.521088,48.999981 369.000000,48.999981 
	C369.000000,32.596794 369.000000,16.798397 369.000000,1.000000 
z"/>
<path fill="#000000" opacity="1.000000" stroke="none" 
	d="
M546.000000,1.000000 
	C609.354248,1.000000 672.708435,1.000000 736.531372,1.468657 
	C737.000000,34.589428 737.000000,67.241539 737.000000,100.000000 
	C755.788147,100.000000 773.894104,100.000000 792.000000,100.000000 
	C792.000000,122.354225 792.000000,144.708450 791.531372,167.531342 
	C774.508728,168.000000 757.954590,167.974808 741.400940,168.043411 
	C739.932678,168.049515 738.466919,168.666656 737.000000,169.000000 
	C697.979126,169.000000 658.958191,169.000000 619.366089,168.643509 
	C616.224182,164.008530 613.615723,159.752228 611.090942,155.446838 
	C605.988525,146.745865 600.914612,138.027939 595.893555,129.279938 
	C595.558350,128.695892 595.765442,127.800613 595.864990,126.715958 
	C601.143799,121.920380 606.681824,117.838768 611.316467,112.907997 
	C618.162903,105.623978 622.858765,96.959229 624.878296,86.603348 
	C624.993958,85.151558 625.037537,84.091331 625.379883,82.859528 
	C625.730286,81.789978 625.782043,80.892029 625.898682,79.535484 
	C625.677368,74.706169 625.391052,70.335442 625.053528,65.638245 
	C624.944824,64.876144 624.887207,64.440514 624.900757,63.667305 
	C624.670532,62.543816 624.369202,61.757904 624.035278,60.571827 
	C622.007263,55.437183 620.011719,50.702709 617.980835,45.715191 
	C617.886414,45.302383 617.827332,45.142624 617.792603,44.749023 
	C617.642517,44.169067 617.376038,44.069489 616.726196,44.067905 
	C614.253723,41.176941 612.072510,38.434521 609.769165,35.457275 
	C609.481689,35.160564 609.316406,35.098671 609.077393,34.722431 
	C608.681702,33.919449 608.359802,33.430805 608.020935,32.970818 
	C608.003967,32.999474 608.062622,32.967899 607.986450,32.722054 
	C607.612976,32.381721 607.315674,32.287231 606.705322,32.047401 
	C602.269470,28.581924 598.146545,25.261786 593.835693,21.624645 
	C592.115540,20.571140 590.560852,19.877615 589.055420,19.090010 
	C584.689941,16.806129 580.344238,14.484487 575.705994,12.057846 
	C571.626465,10.593689 567.831665,9.249339 563.827759,7.564047 
	C558.400757,6.109569 553.182861,4.996034 547.646179,3.937527 
	C546.898621,3.958776 546.469971,3.924999 545.948242,3.615755 
	C545.903503,2.560194 545.951782,1.780097 546.000000,1.000000 
z"/>
<path fill="#FFFFFF" opacity="1.000000" stroke="none" 
	d="
M1.000000,118.468658 
	C123.501549,118.000000 246.003098,118.000000 369.000000,118.000000 
	C369.000000,134.882919 369.000000,151.472794 369.000000,168.531342 
	C246.333328,169.000000 123.666641,169.000000 1.000000,169.000000 
	C1.000000,152.235825 1.000000,135.586563 1.000000,118.468658 
z"/>
<path fill="#FFFFFF" opacity="1.000000" stroke="none" 
	d="
M368.531342,1.000000 
	C369.000000,16.798397 369.000000,32.596794 369.000000,48.999981 
	C246.521088,48.999981 124.229202,48.999981 1.468657,48.999992 
	C1.000000,33.016838 1.000000,17.033680 1.000000,1.000000 
	C123.354225,1.000000 245.708450,1.000000 368.531342,1.000000 
z"/>
<path fill="#FFFFFF" opacity="1.000000" stroke="none" 
	d="
M792.000000,99.531342 
	C773.894104,100.000000 755.788147,100.000000 737.000000,100.000000 
	C737.000000,67.241539 737.000000,34.589428 737.000000,1.468657 
	C755.281128,1.000000 773.562195,1.000000 792.000000,1.000000 
	C792.000000,33.687405 792.000000,66.375046 792.000000,99.531342 
z"/>
<path fill="#2266B9" opacity="1.000000" stroke="none" 
	d="
M495.535004,149.168640 
	C495.416504,148.999786 495.298035,148.830933 495.269531,148.074951 
	C496.513489,146.968460 497.667480,146.449112 499.239288,145.878082 
	C500.104279,144.364639 500.899353,142.911850 500.937378,141.439514 
	C501.087311,135.629776 500.999573,129.813904 501.366516,123.996140 
	C504.792633,121.857346 508.072327,119.974945 510.866608,117.536331 
	C516.971741,112.208336 522.910645,106.681358 528.755981,101.067596 
	C531.716064,98.224823 534.325378,95.016823 537.331848,92.069527 
	C538.325745,92.110466 539.081116,92.055809 540.093140,92.347855 
	C547.073425,92.453171 553.799500,92.260033 560.517456,91.909843 
	C561.365051,91.865662 562.155579,90.970497 562.996399,90.513496 
	C566.853149,88.417175 566.090881,84.306854 567.549194,80.983452 
	C568.572021,80.549751 569.791626,80.082939 569.761719,79.718529 
	C569.405579,75.373344 572.207092,73.355110 575.250671,71.046158 
	C579.963379,67.470993 584.530701,63.609692 588.622803,59.353539 
	C590.474060,57.428093 591.645264,56.690239 593.990906,57.954498 
	C595.528992,58.783546 597.464111,60.118710 598.358826,57.037468 
	C600.782227,60.250397 602.884644,63.306705 604.988403,66.649651 
	C605.256470,67.609535 605.523132,68.282791 605.868774,69.288803 
	C605.972229,70.076897 605.996765,70.532219 605.757080,71.191261 
	C604.505981,71.938660 603.575500,72.734756 602.519836,72.970268 
	C600.667053,73.383652 598.141357,72.749512 596.930786,73.774498 
	C581.884888,86.513252 567.147400,99.618011 552.024963,112.263222 
	C548.624390,115.106758 546.764343,117.372543 549.291504,120.752602 
	C545.446045,121.513039 541.701660,122.253487 537.591858,123.071503 
	C536.816833,124.782906 536.407166,126.416748 535.806152,128.075317 
	C535.614868,128.100037 535.228943,128.100891 534.862183,128.098267 
	C532.928894,128.966843 531.151306,129.596054 529.830017,130.748367 
	C520.987183,138.459702 512.179993,146.215240 503.530853,154.141571 
	C502.232880,155.331085 501.662476,157.432663 501.032654,159.210510 
	C499.285828,164.141342 503.217072,166.302826 506.000000,169.000000 
	C503.629425,169.000000 501.258881,169.000000 498.444153,169.000000 
	C497.991089,168.559219 497.982208,168.118439 497.936951,166.931305 
	C497.601471,161.852661 497.395630,157.510681 496.948944,153.193649 
	C496.806580,151.817947 496.024414,150.508438 495.535004,149.168640 
z"/>
<path fill="#195DAD" opacity="1.000000" stroke="none" 
	d="
M595.720215,127.050110 
	C595.765442,127.800613 595.558350,128.695892 595.893555,129.279938 
	C600.914612,138.027939 605.988525,146.745865 611.090942,155.446838 
	C613.615723,159.752228 616.224182,164.008530 618.897400,168.643509 
	C604.312439,169.000000 589.624878,169.000000 574.458374,168.631973 
	C573.790955,167.822083 573.628052,167.367111 573.409973,166.940323 
	C570.010437,160.287567 566.603760,153.638428 563.531006,147.061981 
	C564.851562,148.388565 565.839844,149.641647 567.311584,151.507690 
	C568.168701,142.206726 568.217712,142.255692 575.237244,135.227036 
	C579.609985,130.848572 583.807251,126.294960 588.423706,121.896645 
	C591.082825,123.665588 593.401550,125.357849 595.720215,127.050110 
z"/>
<path fill="#BDBFC3" opacity="1.000000" stroke="none" 
	d="
M421.886261,110.044830 
	C420.268524,107.935493 418.650787,105.826157 417.349884,103.356201 
	C418.192627,102.179100 419.336609,101.139198 419.136322,100.585182 
	C418.313812,98.309723 417.082275,96.182114 416.001007,93.666756 
	C416.000549,92.888939 416.000275,92.444466 416.336395,91.951965 
	C419.846527,89.036736 423.173889,86.320129 426.162598,83.271568 
	C432.753479,76.548729 439.088806,69.575203 445.684296,62.857021 
	C454.593262,53.782307 463.648651,44.851330 472.641357,35.858875 
	C480.810089,27.690336 488.840790,19.376453 497.215240,11.424556 
	C500.614258,8.197048 504.185120,4.800242 509.600616,4.791201 
	C510.402496,4.789862 511.200287,2.325066 512.000000,0.999997 
	C514.041687,1.000000 516.083313,1.000000 518.629395,1.360510 
	C521.049377,3.461241 522.800659,4.093231 524.000000,1.000000 
	C524.444458,1.000000 524.888916,1.000000 525.744751,1.378521 
	C528.253357,2.434698 530.350525,3.112354 532.447693,3.790011 
	C532.435791,4.194064 532.423889,4.598117 532.411987,5.002171 
	C530.608765,5.002171 528.805603,5.002171 526.560425,5.001348 
	C519.339355,4.320068 514.114075,6.881217 509.476715,11.879292 
	C502.549225,19.345606 495.121429,26.347721 488.694427,32.760998 
	C490.105804,35.506245 491.034729,37.313072 491.752655,39.075714 
	C491.541656,39.031528 491.110596,39.038773 490.870880,39.126804 
	C490.420959,39.475746 490.210785,39.736656 489.751892,39.998528 
	C489.503235,39.999489 489.005890,40.002144 488.695557,40.023857 
	C487.911377,40.397186 487.437561,40.748798 486.748505,41.062714 
	C486.533234,41.025017 486.096252,41.035339 485.875336,41.099823 
	C485.368317,41.306622 485.156036,41.521816 484.794556,41.892441 
	C484.571472,41.975002 484.100067,42.038883 483.860565,42.135193 
	C483.428986,42.508842 483.236938,42.786186 483.023865,43.031410 
	C483.002838,42.999287 483.057373,43.053726 482.817749,43.046989 
	C482.411652,43.370644 482.245178,43.701038 481.917725,44.372116 
	C477.045990,47.839344 472.051422,50.617615 467.689362,54.172150 
	C460.742767,59.832695 456.326019,67.321968 453.612854,76.044907 
	C450.447510,77.266357 447.037567,77.788773 444.996368,79.741730 
	C438.260559,86.186455 431.867950,93.014694 425.699860,100.009804 
	C424.236969,101.668793 424.219574,104.572464 423.427277,106.865601 
	C423.045380,107.970879 422.407990,108.987862 421.886261,110.044830 
z"/>
<path fill="#C1C3C6" opacity="1.000000" stroke="none" 
	d="
M511.600006,0.999997 
	C511.200287,2.325066 510.402496,4.789862 509.600616,4.791201 
	C504.185120,4.800242 500.614258,8.197048 497.215240,11.424556 
	C488.840790,19.376453 480.810089,27.690336 472.641357,35.858875 
	C463.648651,44.851330 454.593262,53.782307 445.684296,62.857021 
	C439.088806,69.575203 432.753479,76.548729 426.162598,83.271568 
	C423.173889,86.320129 419.846527,89.036736 416.061523,91.723724 
	C412.658844,85.922852 415.532013,81.498322 418.972229,77.672409 
	C423.930664,72.158005 429.361725,67.063904 434.667480,61.868420 
	C437.258972,59.330795 440.138458,57.083481 442.686890,54.506302 
	C449.529205,47.586788 456.174133,40.470814 463.065979,33.601929 
	C469.720337,26.969669 476.549164,20.510504 483.378540,14.056968 
	C485.498352,12.053820 487.600677,9.604364 490.189758,8.625640 
	C494.096252,7.148912 495.141052,4.639781 495.000000,1.000000 
	C497.370575,1.000000 499.741119,1.000000 502.622986,1.360365 
	C505.049133,3.458261 506.800537,4.092363 508.000000,1.000000 
	C509.066681,1.000000 510.133331,1.000000 511.600006,0.999997 
z"/>
<path fill="#1F63B5" opacity="1.000000" stroke="none" 
	d="
M506.468658,169.000000 
	C503.217072,166.302826 499.285828,164.141342 501.032654,159.210510 
	C501.662476,157.432663 502.232880,155.331085 503.530853,154.141571 
	C512.179993,146.215240 520.987183,138.459702 529.830017,130.748367 
	C531.151306,129.596054 532.928894,128.966843 534.820923,128.554840 
	C535.140198,133.472717 534.963501,137.941147 535.218262,142.384827 
	C535.309448,143.975021 536.443420,145.505417 537.059082,147.525543 
	C537.024841,154.670746 537.032898,161.353531 537.013916,168.276520 
	C536.986816,168.516724 537.000000,169.000000 537.000000,169.000000 
	C526.979126,169.000000 516.958191,169.000000 506.468658,169.000000 
z"/>
<path fill="#000000" opacity="1.000000" stroke="none" 
	d="
M537.468628,169.000000 
	C537.000000,169.000000 536.986816,168.516724 537.441406,168.232056 
	C538.023376,161.235336 538.150757,154.523300 538.717529,147.858902 
	C546.375366,146.236633 553.593933,144.566742 560.821472,142.959198 
	C560.830505,143.021530 560.953857,143.046997 560.937805,143.339905 
	C561.044067,144.392609 561.166382,145.152374 561.288757,145.912140 
	C561.518250,145.402267 561.747681,144.892380 562.077393,144.858398 
	C562.518005,145.885681 562.858337,146.437073 563.198730,146.988464 
	C566.603760,153.638428 570.010437,160.287567 573.409973,166.940323 
	C573.628052,167.367111 573.790955,167.822083 573.989746,168.631973 
	C561.979126,169.000000 549.958191,169.000000 537.468628,169.000000 
z"/>
<path fill="#C3C6C8" opacity="1.000000" stroke="none" 
	d="
M494.666687,1.000000 
	C495.141052,4.639781 494.096252,7.148912 490.189758,8.625640 
	C487.600677,9.604364 485.498352,12.053820 483.378540,14.056968 
	C476.549164,20.510504 469.720337,26.969669 463.065979,33.601929 
	C456.174133,40.470814 449.529205,47.586788 442.686890,54.506302 
	C440.138458,57.083481 437.258972,59.330795 434.667480,61.868420 
	C429.361725,67.063904 423.930664,72.158005 418.972229,77.672409 
	C415.532013,81.498322 412.658844,85.922852 415.725128,91.771759 
	C416.000275,92.444466 416.000549,92.888939 415.667236,93.666840 
	C414.888733,94.000488 414.443756,94.000702 413.865967,93.692108 
	C412.878876,92.253571 412.024597,91.123833 411.170288,89.994102 
	C410.786163,87.928055 410.402069,85.861992 410.439575,83.317924 
	C413.398682,74.232475 419.888763,68.574646 425.926758,62.556633 
	C441.096375,47.437267 455.974670,32.012421 471.521362,17.292631 
	C476.156952,12.903617 482.610260,10.429212 488.253113,7.115672 
	C488.985535,6.685590 489.852570,6.484729 490.838470,6.108538 
	C490.016205,5.142148 489.486328,4.519394 488.956451,3.896641 
	C488.967163,3.535254 489.127869,3.262106 490.041382,3.030012 
	C491.429504,2.321886 492.214752,1.660947 493.000000,1.000004 
	C493.444458,1.000000 493.888885,1.000000 494.666687,1.000000 
z"/>
<path fill="#B7B9BD" opacity="1.000000" stroke="none" 
	d="
M527.002441,5.002171 
	C528.805603,5.002171 530.608765,5.002171 532.411987,5.002171 
	C532.423889,4.598117 532.435791,4.194064 532.447693,3.790011 
	C530.350525,3.112354 528.253357,2.434698 526.078125,1.378521 
	C531.354919,1.000000 536.709900,1.000000 542.530579,1.355291 
	C543.462158,3.204266 543.042358,5.934544 546.041260,3.891220 
	C546.469971,3.924999 546.898621,3.958776 547.643921,4.348664 
	C546.782471,5.469459 545.666748,6.362629 544.412781,6.970704 
	C542.160156,8.063000 539.390076,8.493588 537.608093,10.072094 
	C532.939758,14.207530 528.671753,18.797054 524.279724,23.240747 
	C523.039429,24.495600 521.921753,25.871572 520.506714,27.463196 
	C522.658325,29.089769 525.889832,30.369377 521.579773,32.891495 
	C517.109436,33.925545 513.053406,34.877865 508.997101,35.446884 
	C507.880341,33.132950 506.763916,31.202320 505.142670,28.398762 
	C509.662720,23.865955 514.853638,18.819616 519.848083,13.585818 
	C522.413757,10.897219 524.628906,7.874121 527.002441,5.002171 
z"/>
<path fill="#FFFFFF" opacity="1.000000" stroke="none" 
	d="
M737.468628,169.000000 
	C738.466919,168.666656 739.932678,168.049515 741.400940,168.043411 
	C757.954590,167.974808 774.508728,168.000000 791.531372,168.000000 
	C790.845154,168.333328 789.691345,168.952713 788.535278,168.957016 
	C771.669495,169.019623 754.803345,169.000000 737.468628,169.000000 
z"/>
<path fill="#B2B4B8" opacity="1.000000" stroke="none" 
	d="
M545.948242,3.615755 
	C543.042358,5.934544 543.462158,3.204266 542.998169,1.355291 
	C543.750000,1.000000 544.500000,1.000000 545.625000,1.000000 
	C545.951782,1.780097 545.903503,2.560194 545.948242,3.615755 
z"/>
<path fill="#BDBFC3" opacity="1.000000" stroke="none" 
	d="
M507.583344,1.000000 
	C506.800537,4.092363 505.049133,3.458261 503.067139,1.360365 
	C504.388885,1.000000 505.777802,1.000000 507.583344,1.000000 
z"/>
<path fill="#BBBDC0" opacity="1.000000" stroke="none" 
	d="
M523.583374,1.000000 
	C522.800659,4.093231 521.049377,3.461241 519.066895,1.360510 
	C520.388916,1.000000 521.777771,1.000000 523.583374,1.000000 
z"/>
<path fill="#FFFFFF" opacity="1.000000" stroke="none" 
	d="
M492.666687,1.000004 
	C492.214752,1.660947 491.429504,2.321886 490.283478,2.983668 
	C490.042419,2.335767 490.162109,1.687023 490.640930,1.019139 
	C491.444458,1.000000 491.888885,1.000000 492.666687,1.000004 
z"/>
<path fill="#C5C7CA" opacity="1.000000" stroke="none" 
	d="
M488.650604,3.944781 
	C489.486328,4.519394 490.016205,5.142148 490.838470,6.108538 
	C489.852570,6.484729 488.985535,6.685590 488.253113,7.115672 
	C482.610260,10.429212 476.156952,12.903617 471.521362,17.292631 
	C455.974670,32.012421 441.096375,47.437267 425.926758,62.556633 
	C419.888763,68.574646 413.398682,74.232475 410.514404,82.919014 
	C410.116638,77.639847 410.065643,72.281578 410.428223,66.502609 
	C412.288879,65.583450 414.161407,65.485512 415.090210,64.499031 
	C416.767456,62.717655 417.571259,60.101097 419.279205,58.363487 
	C430.945892,46.493977 442.685150,34.693409 454.558014,23.030439 
	C457.937714,19.710520 461.837585,16.920202 464.903107,14.380621 
	C464.059631,12.439686 463.530579,11.222205 463.001495,10.004719 
	C463.272247,9.884076 463.542999,9.763440 464.052277,10.116688 
	C467.974945,12.211361 476.855103,11.099406 479.230286,8.515505 
	C479.624390,8.086760 479.070709,6.786774 478.955048,5.889410 
	C481.011200,5.259350 483.067383,4.629292 485.811890,3.992358 
	C486.702637,3.976694 486.905090,3.967907 487.107513,3.959121 
	C487.519928,3.970388 487.932343,3.981655 488.650604,3.944781 
z"/>
<path fill="#B9BBBF" opacity="1.000000" stroke="none" 
	d="
M422.023682,110.360771 
	C422.407990,108.987862 423.045380,107.970879 423.427277,106.865601 
	C424.219574,104.572464 424.236969,101.668793 425.699860,100.009804 
	C431.867950,93.014694 438.260559,86.186455 444.996368,79.741730 
	C447.037567,77.788773 450.447510,77.266357 453.891235,76.231613 
	C455.035797,81.246239 455.519623,86.117981 456.116394,91.457176 
	C456.382721,92.206146 456.536102,92.487663 456.722321,92.909378 
	C456.869843,93.228096 456.889679,93.416740 456.406128,93.701294 
	C455.198578,93.687820 453.972656,93.884666 453.666656,93.443466 
	C450.632019,89.068016 448.529083,91.937134 446.268921,94.236618 
	C443.287323,97.270111 440.072754,100.096825 437.299133,103.306915 
	C433.752045,107.412170 426.682098,110.576035 432.627686,117.863342 
	C432.908173,118.207085 432.200439,119.357056 431.952942,120.131561 
	C428.688995,116.979942 425.425049,113.828331 422.023682,110.360771 
z"/>
<path fill="#A0A1A6" opacity="1.000000" stroke="none" 
	d="
M490.992859,145.825073 
	C490.549805,145.863205 490.106781,145.901337 489.274323,145.557068 
	C487.910095,145.152863 486.935242,145.131058 485.960419,145.109253 
	C479.661499,143.651108 473.362579,142.192963 467.346436,140.341217 
	C468.624298,139.452652 469.619385,138.957672 470.769501,138.385574 
	C469.756958,137.026794 468.927521,135.913757 468.141785,134.859314 
	C474.564636,126.994202 476.191254,125.852463 485.641144,121.749557 
	C486.375305,121.430801 486.586121,119.906609 487.375000,118.961212 
	C490.188507,119.520882 492.667175,120.062035 495.278015,120.642540 
	C495.410126,120.681885 495.656250,120.550819 495.799561,120.850410 
	C496.275696,121.388611 496.608582,121.627213 497.175171,121.924782 
	C497.408905,121.983749 497.887360,122.042809 497.965698,122.437012 
	C498.251282,125.545731 498.458557,128.260223 498.332886,131.033218 
	C495.096069,133.702789 491.845612,136.045319 489.492249,139.082886 
	C488.752441,140.037811 490.433075,142.856125 490.976654,144.829590 
	C491.061951,145.139404 490.991364,145.492172 490.992859,145.825073 
z"/>
<path fill="#A8A9AE" opacity="1.000000" stroke="none" 
	d="
M487.040161,118.942688 
	C486.586121,119.906609 486.375305,121.430801 485.641144,121.749557 
	C476.191254,125.852463 474.564636,126.994202 468.141785,134.859314 
	C468.927521,135.913757 469.756958,137.026794 470.769501,138.385574 
	C469.619385,138.957672 468.624298,139.452652 467.283447,139.987991 
	C464.265686,139.117233 461.551941,138.309906 458.937042,137.256958 
	C457.312073,136.602615 455.836945,135.576202 454.139832,133.992310 
	C452.268707,128.506470 453.676575,124.720428 457.588409,121.713234 
	C461.930054,118.375595 464.231201,111.411568 471.805084,113.700249 
	C472.014923,113.763657 472.618317,112.524857 473.404572,111.947906 
	C477.515259,113.996918 481.259552,115.991310 485.173096,118.238922 
	C485.914856,118.647926 486.487427,118.803719 487.042969,118.971527 
	C487.025940,118.983536 487.040161,118.942688 487.040161,118.942688 
z"/>
<path fill="#AFB0B5" opacity="1.000000" stroke="none" 
	d="
M473.038208,111.893303 
	C472.618317,112.524857 472.014923,113.763657 471.805084,113.700249 
	C464.231201,111.411568 461.930054,118.375595 457.588409,121.713234 
	C453.676575,124.720428 452.268707,128.506470 453.977081,133.677841 
	C453.969086,134.087845 453.538239,134.020813 453.087891,134.013123 
	C452.637573,134.005432 452.171539,133.991669 452.171539,133.991669 
	C451.966370,133.688049 451.761230,133.384430 451.159119,132.814697 
	C450.474518,132.377701 450.186951,132.206802 449.899353,132.035904 
	C446.659149,130.305862 443.418915,128.575821 440.323212,126.454269 
	C440.822906,125.139473 441.753632,123.744957 441.443604,123.366295 
	C438.572266,119.859352 440.659790,117.618889 443.150787,115.323402 
	C444.865143,113.743607 446.358521,111.913795 448.134583,110.413429 
	C451.677643,107.420410 453.848236,102.341820 459.719910,102.687981 
	C460.103210,102.710579 460.596466,100.868156 461.350464,100.029152 
	C464.099976,102.801353 466.537659,105.437660 469.025909,108.395271 
	C469.747498,109.132774 470.418457,109.548973 471.355743,110.065414 
	C472.094116,110.741539 472.566162,111.317429 473.038208,111.893303 
z"/>
<path fill="#C7C9CC" opacity="1.000000" stroke="none" 
	d="
M462.652863,10.001743 
	C463.530579,11.222205 464.059631,12.439686 464.903107,14.380621 
	C461.837585,16.920202 457.937714,19.710520 454.558014,23.030439 
	C442.685150,34.693409 430.945892,46.493977 419.279205,58.363487 
	C417.571259,60.101097 416.767456,62.717655 415.090210,64.499031 
	C414.161407,65.485512 412.288879,65.583450 410.503693,66.040329 
	C410.858826,61.429981 411.552002,56.861214 412.919250,52.296539 
	C413.724396,54.329193 413.855408,56.357746 414.067352,59.639633 
	C422.856750,36.952957 440.424591,24.608719 460.599579,15.251229 
	C460.400879,13.770761 460.227081,12.475702 460.053284,11.180647 
	C460.803619,10.786689 461.553925,10.392725 462.652863,10.001743 
M412.753326,61.825989 
	C412.587524,61.880947 412.421692,61.935905 412.255890,61.990856 
	C412.422699,62.044529 412.589539,62.098198 412.753326,61.825989 
z"/>
<path fill="#B4B6BA" opacity="1.000000" stroke="none" 
	d="
M461.038574,99.893265 
	C460.596466,100.868156 460.103210,102.710579 459.719910,102.687981 
	C453.848236,102.341820 451.677643,107.420410 448.134583,110.413429 
	C446.358521,111.913795 444.865143,113.743607 443.150787,115.323402 
	C440.659790,117.618889 438.572266,119.859352 441.443604,123.366295 
	C441.753632,123.744957 440.822906,125.139473 440.113525,126.188812 
	C439.759308,126.314873 439.795380,126.298744 439.818970,125.909187 
	C438.232971,124.712776 436.623383,123.905930 435.013824,123.099068 
	C434.076385,122.312752 433.138947,121.526436 432.077209,120.435837 
	C432.200439,119.357056 432.908173,118.207085 432.627686,117.863342 
	C426.682098,110.576035 433.752045,107.412170 437.299133,103.306915 
	C440.072754,100.096825 443.287323,97.270111 446.268921,94.236618 
	C448.529083,91.937134 450.632019,89.068016 453.666656,93.443466 
	C453.972656,93.884666 455.198578,93.687820 456.643005,93.917145 
	C458.538483,95.995895 459.788513,97.944580 461.038574,99.893265 
z"/>
<path fill="#C5C7CA" opacity="1.000000" stroke="none" 
	d="
M459.688171,11.226631 
	C460.227081,12.475702 460.400879,13.770761 460.599579,15.251229 
	C440.424591,24.608719 422.856750,36.952957 414.067352,59.639633 
	C413.855408,56.357746 413.724396,54.329193 413.296692,52.150333 
	C417.499847,45.706108 420.619080,38.776634 426.692230,33.162441 
	C434.629272,25.825190 443.076965,20.061041 452.721710,15.605465 
	C455.085022,14.513686 457.131134,12.735326 459.688171,11.226631 
z"/>
<path fill="#9698A2" opacity="1.000000" stroke="none" 
	d="
M491.299866,145.960907 
	C490.991364,145.492172 491.061951,145.139404 490.976654,144.829590 
	C490.433075,142.856125 488.752441,140.037811 489.492249,139.082886 
	C491.845612,136.045319 495.096069,133.702789 498.434021,131.492966 
	C498.852600,136.572739 498.837036,141.251266 498.821472,145.929779 
	C497.667480,146.449112 496.513489,146.968460 495.215637,147.770264 
	C493.916870,147.400742 492.761871,146.748734 491.299866,145.960907 
z"/>
<path fill="#C7C9CC" opacity="1.000000" stroke="none" 
	d="
M478.553223,5.938322 
	C479.070709,6.786774 479.624390,8.086760 479.230286,8.515505 
	C476.855103,11.099406 467.974945,12.211361 464.144897,10.297593 
	C463.998962,10.004615 464.459076,9.982803 465.042633,9.983719 
	C466.424255,9.624469 467.222290,9.264303 468.020355,8.904139 
	C471.397369,7.931837 474.774414,6.959534 478.553223,5.938322 
z"/>
<path fill="#0000FF" opacity="1.000000" stroke="none" 
	d="
M495.465271,149.622711 
	C496.024414,150.508438 496.806580,151.817947 496.948944,153.193649 
	C497.395630,157.510681 497.601471,161.852661 497.888916,166.604156 
	C497.063568,166.478165 495.565704,165.959549 495.543335,165.383621 
	C495.345337,160.287125 495.409058,155.180435 495.465271,149.622711 
z"/>
<path fill="#C1C3C6" opacity="1.000000" stroke="none" 
	d="
M413.998779,94.000916 
	C414.443756,94.000702 414.888733,94.000488 415.667480,94.000191 
	C417.082275,96.182114 418.313812,98.309723 419.136322,100.585182 
	C419.336609,101.139198 418.192627,102.179100 417.308929,103.006226 
	C416.951141,103.016861 416.468842,102.913696 416.236572,102.634933 
	C416.004333,102.356171 415.989471,101.971588 415.989471,101.971588 
	C415.678680,101.223297 415.367889,100.475006 414.985291,99.046524 
	C414.608582,96.911194 414.303680,95.456055 413.998779,94.000916 
z"/>
<path fill="#BDBFC3" opacity="1.000000" stroke="none" 
	d="
M413.865967,93.692108 
	C414.303680,95.456055 414.608582,96.911194 414.935089,98.740623 
	C413.643219,96.344818 412.329712,93.574715 411.093262,90.399353 
	C412.024597,91.123833 412.878876,92.253571 413.865967,93.692108 
z"/>
<path fill="#AFB0B5" opacity="1.000000" stroke="none" 
	d="
M435.064575,123.440102 
	C436.623383,123.905930 438.232971,124.712776 439.800629,125.907944 
	C438.210938,125.457878 436.663116,124.619507 435.064575,123.440102 
z"/>
<path fill="#9698A2" opacity="1.000000" stroke="none" 
	d="
M486.121307,145.416794 
	C486.935242,145.131058 487.910095,145.152863 488.945862,145.490036 
	C488.098633,145.778381 487.190399,145.751343 486.121307,145.416794 
z"/>
<path fill="#C5C7CA" opacity="1.000000" stroke="none" 
	d="
M467.693451,8.904707 
	C467.222290,9.264303 466.424255,9.624469 465.272888,9.977587 
	C465.735229,9.615451 466.550873,9.260364 467.693451,8.904707 
z"/>
<path fill="#A8A9AE" opacity="1.000000" stroke="none" 
	d="
M449.957672,132.276733 
	C450.186951,132.206802 450.474518,132.377701 450.881226,132.774734 
	C450.672241,132.839783 450.344116,132.678680 449.957672,132.276733 
z"/>
<path fill="#C3C6C8" opacity="1.000000" stroke="none" 
	d="
M487.016388,3.698860 
	C486.905090,3.967907 486.702637,3.976694 486.196350,3.972385 
	C486.236755,3.785726 486.580994,3.612163 487.016388,3.698860 
z"/>
<path fill="#A8A9AE" opacity="1.000000" stroke="none" 
	d="
M452.134033,134.259628 
	C452.171539,133.991669 452.637573,134.005432 452.870178,134.023895 
	C452.767334,134.204117 452.431946,134.365860 452.134033,134.259628 
z"/>
<path fill="#BDBFC3" opacity="1.000000" stroke="none" 
	d="
M415.745422,102.040009 
	C415.989471,101.971588 416.004333,102.356171 416.005615,102.548584 
	C415.838379,102.530136 415.669861,102.319275 415.745422,102.040009 
z"/>
<path fill="#86858D" opacity="1.000000" stroke="none" 
	d="
M595.864990,126.715950 
	C593.401550,125.357849 591.082825,123.665588 588.288452,121.579666 
	C587.514893,119.845047 587.217041,118.504089 587.278809,117.078857 
	C590.696045,114.720940 593.487976,111.884438 596.866089,110.289803 
	C604.095093,106.877357 606.047058,99.950844 608.952271,93.631950 
	C609.534363,92.365807 608.981873,90.617256 609.249390,89.145050 
	C609.338501,88.654427 610.354309,88.332153 610.973511,88.312943 
	C611.584961,91.829224 613.142273,91.506393 615.025208,89.791878 
	C616.363586,88.573242 617.643738,87.290680 619.201233,85.795311 
	C619.902283,87.985619 620.348633,89.380165 620.849670,90.945648 
	C622.440857,89.356750 623.623474,88.175812 624.806152,86.994888 
	C622.858765,96.959229 618.162903,105.623978 611.316467,112.907997 
	C606.681824,117.838768 601.143799,121.920380 595.864990,126.715950 
z"/>
<path fill="#B2B4B8" opacity="1.000000" stroke="none" 
	d="
M521.994080,32.809765 
	C525.889832,30.369377 522.658325,29.089769 520.506714,27.463196 
	C521.921753,25.871572 523.039429,24.495600 524.279724,23.240747 
	C528.671753,18.797054 532.939758,14.207530 537.608093,10.072094 
	C539.390076,8.493588 542.160156,8.063000 544.412781,6.970704 
	C545.666748,6.362629 546.782471,5.469459 547.962769,4.293636 
	C553.182861,4.996034 558.400757,6.109569 563.767578,7.917183 
	C563.312256,9.101292 562.642090,10.079195 562.113464,10.007860 
	C554.698059,9.007162 551.552124,14.882729 547.478455,19.101225 
	C544.653687,22.026377 539.914062,23.747086 540.612793,29.221395 
	C540.671936,29.684397 538.903748,30.384975 537.979919,30.967985 
	C536.987488,31.594229 535.989746,32.211994 534.577576,32.902584 
	C530.105286,32.917728 526.049683,32.863747 521.994080,32.809765 
z"/>
<path fill="#ACAEB2" opacity="1.000000" stroke="none" 
	d="
M534.994263,32.833443 
	C535.989746,32.211994 536.987488,31.594229 537.979919,30.967985 
	C538.903748,30.384975 540.671936,29.684397 540.612793,29.221395 
	C539.914062,23.747086 544.653687,22.026377 547.478455,19.101225 
	C551.552124,14.882729 554.698059,9.007162 562.113464,10.007860 
	C562.642090,10.079195 563.312256,9.101292 563.976807,8.258126 
	C567.831665,9.249339 571.626465,10.593689 575.707153,12.417092 
	C575.239136,13.731185 574.621216,14.792447 573.698730,15.347631 
	C572.354431,16.156731 570.514465,16.279869 569.372131,17.261414 
	C565.735962,20.385620 562.324646,23.771538 558.826416,27.056349 
	C559.424988,27.470499 560.023499,27.884649 560.622009,28.298800 
	C559.745544,30.143463 558.869141,31.988125 557.642578,33.897511 
	C549.859680,33.585964 542.426941,33.209698 534.994263,32.833443 
z"/>
<path fill="#A5A7AC" opacity="1.000000" stroke="none" 
	d="
M557.992737,33.832787 
	C558.869141,31.988125 559.745544,30.143463 560.622009,28.298800 
	C560.023499,27.884649 559.424988,27.470499 558.826416,27.056349 
	C562.324646,23.771538 565.735962,20.385620 569.372131,17.261414 
	C570.514465,16.279869 572.354431,16.156731 573.698730,15.347631 
	C574.621216,14.792447 575.239136,13.731185 575.991943,12.536900 
	C580.344238,14.484487 584.689941,16.806129 589.055420,19.090010 
	C590.560852,19.877615 592.115540,20.571140 593.749023,22.014454 
	C592.882935,23.146236 591.938477,23.873484 590.944580,23.948771 
	C582.310486,24.602798 579.310059,28.342890 580.664307,36.796051 
	C580.778320,37.507538 580.220581,38.326633 579.755981,39.054314 
	C579.537109,39.012894 579.092346,39.038414 578.863098,39.021305 
	C578.633850,39.004196 578.174194,38.989895 578.067139,38.732208 
	C577.641785,38.321533 577.323547,38.168545 576.829224,37.760704 
	C576.068970,37.350525 575.484802,37.195198 574.569946,37.017933 
	C568.823730,35.941589 563.408264,34.887188 557.992737,33.832787 
z"/>
<path fill="#9E9EA4" opacity="1.000000" stroke="none" 
	d="
M579.974854,39.095726 
	C580.220581,38.326633 580.778320,37.507538 580.664307,36.796051 
	C579.310059,28.342890 582.310486,24.602798 590.944580,23.948771 
	C591.938477,23.873484 592.882935,23.146236 593.937012,22.331457 
	C598.146545,25.261786 602.269470,28.581924 606.830688,32.235096 
	C607.485901,32.796028 607.750427,32.929287 608.062622,32.967899 
	C608.062622,32.967899 608.003967,32.999474 608.032288,33.291065 
	C608.424133,34.067360 608.787598,34.552063 609.151123,35.036770 
	C609.316406,35.098671 609.481689,35.160564 609.335632,35.525364 
	C607.899414,35.648838 606.587646,35.780697 605.681580,35.236759 
	C601.478699,32.713696 599.065063,36.279545 596.657837,38.260429 
	C595.653748,39.086697 596.754089,42.196281 596.375305,44.167309 
	C596.172974,45.220112 594.859253,46.059334 593.722046,46.856270 
	C588.922913,44.176968 584.448914,41.636341 579.974854,39.095726 
z"/>
<path fill="#8B8B93" opacity="1.000000" stroke="none" 
	d="
M624.878235,86.603325 
	C623.623474,88.175812 622.440857,89.356750 620.849670,90.945648 
	C620.348633,89.380165 619.902283,87.985619 619.201233,85.795311 
	C617.643738,87.290680 616.363586,88.573242 615.025208,89.791878 
	C613.142273,91.506393 611.584961,91.829224 610.982239,88.332108 
	C610.963989,87.971252 610.927185,87.957207 611.238281,87.935577 
	C611.447510,86.623962 611.345703,85.333969 611.150391,83.589607 
	C610.333496,77.412621 609.610046,71.690002 609.215454,66.011108 
	C610.515076,66.829437 611.485840,67.604042 612.634033,68.520271 
	C615.709900,64.202965 619.063660,60.884975 624.147095,65.939651 
	C624.311768,66.103432 624.778625,65.963226 625.104675,65.964714 
	C625.391052,70.335442 625.677368,74.706169 625.583008,79.594460 
	C625.161865,81.085052 625.121460,82.058083 625.081116,83.031113 
	C625.037537,84.091331 624.993958,85.151558 624.878235,86.603325 
z"/>
<path fill="#97979D" opacity="1.000000" stroke="none" 
	d="
M594.047119,46.994942 
	C594.859253,46.059334 596.172974,45.220112 596.375305,44.167309 
	C596.754089,42.196281 595.653748,39.086697 596.657837,38.260429 
	C599.065063,36.279545 601.478699,32.713696 605.681580,35.236759 
	C606.587646,35.780697 607.899414,35.648838 609.457764,35.760185 
	C612.072510,38.434521 614.253723,41.176941 616.810669,44.231728 
	C617.335999,44.749142 617.529968,44.895397 617.768311,44.982864 
	C617.827332,45.142624 617.886414,45.302383 617.914551,46.069042 
	C617.419006,47.063538 616.941284,47.803143 616.491821,47.786343 
	C608.806702,47.499084 607.863403,48.432430 607.775452,56.193550 
	C607.768555,56.799950 606.625793,57.393471 605.816895,57.987320 
	C605.622742,57.981659 605.234741,57.979858 605.077026,57.659725 
	C601.295227,53.891373 597.671204,50.443157 594.047119,46.994942 
z"/>
<path fill="#909097" opacity="1.000000" stroke="none" 
	d="
M606.010986,57.992977 
	C606.625793,57.393471 607.768555,56.799950 607.775452,56.193550 
	C607.863403,48.432430 608.806702,47.499084 616.491821,47.786343 
	C616.941284,47.803143 617.419006,47.063538 617.949890,46.322090 
	C620.011719,50.702709 622.007263,55.437183 623.774597,60.756447 
	C623.974121,62.229111 624.401855,63.116989 624.829590,64.004875 
	C624.887207,64.440514 624.944824,64.876144 625.053528,65.638245 
	C624.778625,65.963226 624.311768,66.103432 624.147095,65.939651 
	C619.063660,60.884975 615.709900,64.202965 612.634033,68.520271 
	C611.485840,67.604042 610.515076,66.829437 609.262390,65.789253 
	C608.980408,65.523674 608.972900,65.070198 608.956543,64.734421 
	C608.309631,63.262657 607.679077,62.126667 606.801636,60.865761 
	C606.377380,60.690319 606.200012,60.639797 606.019165,60.265022 
	C606.014038,59.291504 606.012512,58.642242 606.010986,57.992977 
z"/>
<path fill="#86858D" opacity="1.000000" stroke="none" 
	d="
M625.379883,82.859528 
	C625.121460,82.058083 625.161865,81.085052 625.518005,80.053047 
	C625.782043,80.892029 625.730286,81.789978 625.379883,82.859528 
z"/>
<path fill="#8B8B93" opacity="1.000000" stroke="none" 
	d="
M624.900757,63.667297 
	C624.401855,63.116989 623.974121,62.229111 623.807129,61.156616 
	C624.369202,61.757904 624.670532,62.543816 624.900757,63.667297 
z"/>
<path fill="#97979D" opacity="1.000000" stroke="none" 
	d="
M609.077393,34.722427 
	C608.787598,34.552063 608.424133,34.067360 608.049255,33.262413 
	C608.359802,33.430805 608.681702,33.919449 609.077393,34.722427 
z"/>
<path fill="#909097" opacity="1.000000" stroke="none" 
	d="
M617.792603,44.749023 
	C617.529968,44.895397 617.335999,44.749142 617.101929,44.380272 
	C617.376038,44.069489 617.642517,44.169067 617.792603,44.749023 
z"/>
<path fill="#97979D" opacity="1.000000" stroke="none" 
	d="
M607.986450,32.722054 
	C607.750427,32.929287 607.485901,32.796028 607.143677,32.380432 
	C607.315674,32.287231 607.612976,32.381721 607.986450,32.722054 
z"/>
<path fill="#000000" opacity="1.000000" stroke="none" 
	d="
M606.022644,60.589272 
	C606.200012,60.639797 606.377380,60.690319 606.794556,61.218311 
	C607.680420,62.820591 608.326660,63.945400 608.972900,65.070206 
	C608.972900,65.070198 608.980408,65.523674 608.933472,65.745529 
	C609.610046,71.690002 610.333496,77.412621 611.079956,83.976257 
	C611.044312,85.863922 610.985718,86.910561 610.927185,87.957207 
	C610.927185,87.957207 610.963989,87.971252 610.955261,87.952087 
	C610.354309,88.332153 609.338501,88.654427 609.249390,89.145050 
	C608.981873,90.617256 609.534363,92.365807 608.952271,93.631950 
	C606.047058,99.950844 604.095093,106.877357 596.866089,110.289803 
	C593.487976,111.884438 590.696045,114.720940 586.924927,117.024307 
	C584.776978,116.550575 583.342590,116.047119 581.080750,115.253273 
	C583.937012,114.124954 585.820251,113.503326 587.596741,112.657486 
	C594.268982,109.480644 599.513733,104.312325 603.466492,98.442070 
	C608.334045,91.213150 607.023682,82.323692 607.357117,74.011246 
	C607.396790,73.022797 606.489624,71.996368 606.021362,70.987541 
	C605.996765,70.532219 605.972229,70.076897 605.932861,69.024460 
	C605.607666,67.739235 605.297363,67.051132 604.987061,66.363022 
	C602.884644,63.306705 600.782227,60.250397 598.227051,56.748009 
	C596.855469,55.186939 595.936646,54.071953 594.937744,52.739746 
	C594.664368,52.201691 594.394958,52.113621 593.724854,52.090649 
	C590.931641,51.003517 588.462952,50.084053 585.618042,49.085564 
	C581.493103,48.061352 577.744385,47.116158 573.531494,46.103832 
	C549.118164,46.023270 525.168823,45.976879 501.220154,46.080173 
	C499.816986,46.086227 498.419037,47.301300 496.763458,47.985970 
	C496.343658,48.066425 496.179108,48.114655 495.640198,48.350403 
	C495.225861,72.559677 495.185883,96.581429 495.145874,120.603195 
	C492.667175,120.062035 490.188507,119.520882 487.375000,118.961212 
	C487.040161,118.942688 487.025940,118.983536 486.906677,118.691742 
	C486.192902,118.261871 485.598389,118.123787 485.003876,117.985703 
	C481.259552,115.991310 477.515259,113.996918 473.404572,111.947922 
	C472.566162,111.317429 472.094116,110.741539 471.294006,109.740685 
	C470.302429,108.901802 469.638855,108.487885 468.975311,108.073975 
	C466.537659,105.437660 464.099976,102.801353 461.350464,100.029160 
	C459.788513,97.944580 458.538483,95.995895 457.051575,93.831360 
	C456.889679,93.416740 456.869843,93.228096 456.875305,92.696030 
	C456.664825,91.891556 456.334167,91.440628 456.003479,90.989716 
	C455.519623,86.117981 455.035797,81.246239 454.273621,76.187798 
	C456.326019,67.321968 460.742767,59.832695 467.689362,54.172150 
	C472.051422,50.617615 477.045990,47.839344 482.159546,44.303406 
	C482.727295,43.613914 482.892334,43.333824 483.057373,43.053730 
	C483.057373,43.053726 483.002838,42.999287 483.278168,42.957283 
	C483.735687,42.623150 483.917877,42.331024 484.100098,42.038887 
	C484.100067,42.038883 484.571472,41.975002 485.053192,41.927658 
	C485.722015,41.598656 485.909119,41.316994 486.096252,41.035336 
	C486.096252,41.035339 486.533234,41.025017 486.868073,41.346901 
	C487.803925,41.113239 488.404907,40.557697 489.005890,40.002151 
	C489.005890,40.002144 489.503235,39.999489 489.845703,40.228859 
	C490.341461,40.657516 490.494812,40.856808 490.648132,41.056095 
	C490.802277,40.383652 490.956421,39.711208 491.110596,39.038773 
	C491.110596,39.038773 491.541656,39.031528 491.851929,39.351254 
	C495.739410,38.461170 499.316589,37.251362 502.984802,36.300034 
	C503.416870,36.385166 503.757965,36.211823 504.441254,36.010300 
	C506.188110,35.931477 507.592743,35.880829 508.997406,35.830185 
	C513.053406,34.877865 517.109436,33.925545 521.579773,32.891495 
	C526.049683,32.863747 530.105286,32.917728 534.577576,32.902573 
	C542.426941,33.209698 549.859680,33.585964 557.642578,33.897507 
	C563.408264,34.887188 568.823730,35.941589 574.634399,37.321598 
	C575.688171,37.769985 576.346741,37.892769 577.005310,38.015553 
	C577.323547,38.168545 577.641785,38.321533 578.031006,38.997334 
	C578.432068,39.359562 578.762207,39.198986 579.092346,39.038414 
	C579.092346,39.038414 579.537109,39.012894 579.755981,39.054306 
	C584.448914,41.636341 588.922913,44.176968 593.722046,46.856266 
	C597.671204,50.443157 601.295227,53.891373 605.003906,57.990242 
	C605.399841,59.290352 605.711243,59.939808 606.022644,60.589272 
z"/>
<path fill="#1F62B4" opacity="1.000000" stroke="none" 
	d="
M605.757080,71.191261 
	C606.489624,71.996368 607.396790,73.022797 607.357117,74.011246 
	C607.023682,82.323692 608.334045,91.213150 603.466492,98.442070 
	C599.513733,104.312325 594.268982,109.480644 587.596741,112.657486 
	C585.820251,113.503326 583.937012,114.124954 581.080750,115.253273 
	C583.342590,116.047119 584.776978,116.550575 586.565308,117.108574 
	C587.217041,118.504089 587.514893,119.845047 587.947998,121.502983 
	C583.807251,126.294960 579.609985,130.848572 575.237244,135.227036 
	C568.217712,142.255692 568.168701,142.206726 567.311584,151.507690 
	C565.839844,149.641647 564.851562,148.388565 563.531006,147.061981 
	C562.858337,146.437073 562.518005,145.885681 562.077148,144.714417 
	C561.635742,143.745361 561.294800,143.396179 560.953857,143.046997 
	C560.953857,143.046997 560.830505,143.021530 560.964233,142.705505 
	C560.987000,141.304092 560.875916,140.218689 561.031616,138.960388 
	C560.811829,138.185379 560.325195,137.583267 559.645630,136.711761 
	C556.587585,133.278061 556.227173,127.886971 550.763733,126.561661 
	C546.574829,124.540260 542.888489,120.954071 538.026794,123.822044 
	C537.990540,123.361794 537.973938,123.177864 537.957275,122.993935 
	C541.701660,122.253487 545.446045,121.513039 549.291504,120.752602 
	C546.764343,117.372543 548.624390,115.106758 552.024963,112.263222 
	C567.147400,99.618011 581.884888,86.513252 596.930786,73.774498 
	C598.141357,72.749512 600.667053,73.383652 602.519836,72.970268 
	C603.575500,72.734756 604.505981,71.938660 605.757080,71.191261 
z"/>
<path fill="#2569BD" opacity="1.000000" stroke="none" 
	d="
M573.995667,46.170967 
	C577.744385,47.116158 581.493103,48.061352 585.557739,49.460484 
	C584.533325,50.609089 583.107910,52.017353 581.868042,51.869476 
	C577.515991,51.350403 574.683167,53.394222 572.037781,56.391502 
	C570.745300,57.855934 569.118103,59.053745 567.535522,60.228226 
	C561.538391,64.678894 561.068420,65.965424 562.842773,73.150162 
	C563.075317,74.091812 562.932983,75.126038 562.709045,76.047623 
	C562.288818,75.915329 562.123901,75.852806 561.816956,75.605225 
	C561.142761,75.504570 560.610535,75.588989 559.837524,75.757675 
	C559.384766,75.598648 559.172852,75.355362 558.970337,74.681885 
	C559.274963,71.510750 557.753418,71.022385 555.379883,70.953041 
	C549.973694,70.795113 544.575378,70.368980 539.173645,70.055359 
	C535.963440,69.868973 534.133728,71.313416 534.026367,74.592102 
	C533.945374,77.064690 533.713989,79.592842 534.132568,81.994652 
	C534.328613,83.119392 535.901184,84.004211 536.901855,85.431625 
	C537.000366,87.901627 537.046814,89.937790 537.093262,91.973938 
	C534.325378,95.016823 531.716064,98.224823 528.755981,101.067596 
	C522.910645,106.681358 516.971741,112.208336 510.866608,117.536331 
	C508.072327,119.974945 504.792633,121.857346 501.309692,123.644821 
	C499.886658,122.879379 498.886993,122.461090 497.887360,122.042809 
	C497.887360,122.042809 497.408905,121.983749 497.289368,121.684494 
	C497.435638,120.934898 497.701477,120.484550 498.079620,119.771523 
	C498.457703,119.005936 498.723511,118.503029 499.336914,117.806335 
	C500.123016,116.089417 500.881134,114.578400 500.939514,113.040833 
	C501.109589,108.558914 501.092163,104.064003 500.976105,99.578644 
	C500.838440,94.256042 501.154175,90.206543 506.655029,86.293449 
	C516.707092,79.142761 525.287659,69.951889 534.712891,61.881626 
	C540.917603,56.568863 545.777832,48.929607 555.539673,49.268707 
	C560.339600,49.435444 565.156433,49.085285 569.966248,49.009098 
	C571.987671,48.977081 574.190308,49.304527 573.995667,46.170967 
z"/>
<path fill="#2367BB" opacity="1.000000" stroke="none" 
	d="
M562.964233,76.117393 
	C562.932983,75.126038 563.075317,74.091812 562.842773,73.150162 
	C561.068420,65.965424 561.538391,64.678894 567.535522,60.228226 
	C569.118103,59.053745 570.745300,57.855934 572.037781,56.391502 
	C574.683167,53.394222 577.515991,51.350403 581.868042,51.869476 
	C583.107910,52.017353 584.533325,50.609089 585.933960,49.539505 
	C588.462952,50.084053 590.931641,51.003517 593.842773,52.260677 
	C594.488770,52.801067 594.732910,52.920605 595.017822,52.956970 
	C595.936646,54.071953 596.855469,55.186939 597.906006,56.591389 
	C597.464111,60.118710 595.528992,58.783546 593.990906,57.954498 
	C591.645264,56.690239 590.474060,57.428093 588.622803,59.353539 
	C584.530701,63.609692 579.963379,67.470993 575.250671,71.046158 
	C572.207092,73.355110 569.405579,75.373344 569.761719,79.718529 
	C569.791626,80.082939 568.572021,80.549751 567.403259,80.689270 
	C565.570496,78.978844 564.267334,77.548119 562.964233,76.117393 
z"/>
<path fill="#000000" opacity="1.000000" stroke="none" 
	d="
M562.708984,76.047630 
	C564.267334,77.548119 565.570496,78.978844 567.019531,80.703751 
	C566.090881,84.306854 566.853149,88.417175 562.996399,90.513496 
	C562.155579,90.970497 561.365051,91.865662 560.517456,91.909843 
	C553.799500,92.260033 547.073425,92.453171 540.000977,91.939178 
	C539.442261,85.830894 539.232239,80.478004 539.488220,75.073090 
	C546.289734,75.051407 552.625366,75.081734 558.960938,75.112068 
	C559.172852,75.355362 559.384766,75.598648 560.148438,75.818054 
	C561.119751,75.792870 561.539368,75.791580 561.958984,75.790291 
	C562.123901,75.852806 562.288818,75.915329 562.708984,76.047630 
z"/>
<path fill="#8A8B95" opacity="1.000000" stroke="none" 
	d="
M560.764893,139.133270 
	C560.875916,140.218689 560.987000,141.304092 560.955200,142.643173 
	C553.593933,144.566742 546.375366,146.236633 538.610840,147.708862 
	C537.743652,147.361816 537.422546,147.212463 537.101379,147.063110 
	C536.443420,145.505417 535.309448,143.975021 535.218262,142.384827 
	C534.963501,137.941147 535.140198,133.472717 535.187744,128.557480 
	C535.228943,128.100891 535.614868,128.100037 536.084839,128.078583 
	C536.735107,128.011993 536.915283,127.966858 537.536804,127.946991 
	C542.300171,127.605583 546.622192,127.238899 550.944275,126.872215 
	C556.227173,127.886971 556.587585,133.278061 559.674194,137.017517 
	C560.185486,138.106186 560.475159,138.619720 560.764893,139.133270 
z"/>
<path fill="#276CC1" opacity="1.000000" stroke="none" 
	d="
M497.965698,122.437012 
	C498.886993,122.461090 499.886658,122.879379 500.943146,123.648987 
	C500.999573,129.813904 501.087311,135.629776 500.937378,141.439514 
	C500.899353,142.911850 500.104279,144.364639 499.239258,145.878082 
	C498.837036,141.251266 498.852600,136.572739 498.766968,131.434479 
	C498.458557,128.260223 498.251282,125.545731 497.965698,122.437012 
z"/>
<path fill="#0000FF" opacity="1.000000" stroke="none" 
	d="
M539.022278,75.125107 
	C539.232239,80.478004 539.442261,85.830894 539.744324,91.592476 
	C539.081116,92.055809 538.325745,92.110466 537.331848,92.069534 
	C537.046814,89.937790 537.000366,87.901627 536.956421,84.984055 
	C536.972534,82.293167 536.738525,80.434784 537.082825,78.690582 
	C537.332886,77.423836 538.348206,76.308151 539.022278,75.125107 
z"/>
<path fill="#1F63B5" opacity="1.000000" stroke="none" 
	d="
M537.095459,127.921707 
	C536.915283,127.966858 536.735107,128.011993 536.276184,128.053864 
	C536.407166,126.416748 536.816833,124.782906 537.591858,123.071503 
	C537.973938,123.177864 537.990540,123.361794 538.009521,124.159988 
	C537.706421,125.823410 537.400940,126.872559 537.095459,127.921707 
z"/>
<path fill="#1F62B4" opacity="1.000000" stroke="none" 
	d="
M604.988403,66.649658 
	C605.297363,67.051132 605.607666,67.739235 605.853882,68.691696 
	C605.523132,68.282791 605.256470,67.609535 604.988403,66.649658 
z"/>
<path fill="#BBBDC0" opacity="1.000000" stroke="none" 
	d="
M508.997101,35.446880 
	C507.592743,35.880829 506.188110,35.931477 504.139801,35.998409 
	C503.295380,36.023647 503.094574,36.032600 502.893799,36.041557 
	C499.316589,37.251362 495.739410,38.461170 492.062927,39.395439 
	C491.034729,37.313072 490.105804,35.506245 488.694427,32.760998 
	C495.121429,26.347721 502.549225,19.345606 509.476715,11.879292 
	C514.114075,6.881217 519.339355,4.320068 526.560425,5.001348 
	C524.628906,7.874121 522.413757,10.897219 519.848083,13.585818 
	C514.853638,18.819616 509.662720,23.865955 505.142670,28.398762 
	C506.763916,31.202320 507.880341,33.132950 508.997101,35.446880 
z"/>
<path fill="#BBBDC0" opacity="1.000000" stroke="none" 
	d="
M488.695557,40.023865 
	C488.404907,40.557697 487.803925,41.113239 487.083344,41.384598 
	C487.437561,40.748798 487.911377,40.397186 488.695557,40.023865 
z"/>
<path fill="#BBBDC0" opacity="1.000000" stroke="none" 
	d="
M490.870850,39.126801 
	C490.956421,39.711208 490.802277,40.383652 490.648132,41.056095 
	C490.494812,40.856808 490.341461,40.657516 490.094360,40.227898 
	C490.210785,39.736656 490.420959,39.475746 490.870850,39.126801 
z"/>
<path fill="#BBBDC0" opacity="1.000000" stroke="none" 
	d="
M482.817749,43.046989 
	C482.892334,43.333824 482.727295,43.613914 482.320465,43.962715 
	C482.245178,43.701038 482.411652,43.370644 482.817749,43.046989 
z"/>
<path fill="#BBBDC0" opacity="1.000000" stroke="none" 
	d="
M483.860596,42.135197 
	C483.917877,42.331024 483.735687,42.623150 483.299194,42.989407 
	C483.236938,42.786186 483.428986,42.508842 483.860596,42.135197 
z"/>
<path fill="#BBBDC0" opacity="1.000000" stroke="none" 
	d="
M485.875336,41.099819 
	C485.909119,41.316994 485.722015,41.598656 485.276276,41.845100 
	C485.156036,41.521816 485.368317,41.306622 485.875336,41.099819 
z"/>
<path fill="#0000FF" opacity="1.000000" stroke="none" 
	d="
M537.059082,147.525528 
	C537.422546,147.212463 537.743652,147.361816 538.171509,147.661224 
	C538.150757,154.523300 538.023376,161.235336 537.468506,167.991852 
	C537.032898,161.353531 537.024841,154.670746 537.059082,147.525528 
z"/>
<path fill="#195DAD" opacity="1.000000" stroke="none" 
	d="
M560.937805,143.339905 
	C561.294800,143.396179 561.635742,143.745361 561.976929,144.238525 
	C561.747681,144.892380 561.518250,145.402267 561.288757,145.912140 
	C561.166382,145.152374 561.044067,144.392609 560.937805,143.339905 
z"/>
<path fill="#B4B6BA" opacity="1.000000" stroke="none" 
	d="
M456.116394,91.457169 
	C456.334167,91.440628 456.664825,91.891556 456.842499,92.555832 
	C456.536102,92.487663 456.382721,92.206146 456.116394,91.457169 
z"/>
<path fill="#0000FF" opacity="1.000000" stroke="none" 
	d="
M497.967316,120.034210 
	C497.701477,120.484550 497.435638,120.934898 497.055634,121.625534 
	C496.608582,121.627213 496.275696,121.388611 495.929138,120.444397 
	C495.948486,95.880157 495.981506,72.021523 496.014557,48.162880 
	C496.179108,48.114655 496.343658,48.066425 496.791321,48.268181 
	C497.098694,48.705566 497.122986,48.892956 497.078491,49.536842 
	C497.023743,71.941719 497.021179,93.890144 497.091095,115.838341 
	C497.095551,117.237877 497.662201,118.635628 497.967316,120.034210 
z"/>
<path fill="#017F81" opacity="1.000000" stroke="none" 
	d="
M495.640198,48.350403 
	C495.981506,72.021523 495.948486,95.880157 495.785828,120.144806 
	C495.656250,120.550819 495.410126,120.681885 495.278015,120.642532 
	C495.185883,96.581429 495.225861,72.559677 495.640198,48.350403 
z"/>
<path fill="#A0A1A6" opacity="1.000000" stroke="none" 
	d="
M485.173096,118.238922 
	C485.598389,118.123787 486.192902,118.261871 486.923706,118.679733 
	C486.487427,118.803719 485.914856,118.647926 485.173096,118.238922 
z"/>
<path fill="#A8A9AE" opacity="1.000000" stroke="none" 
	d="
M469.025909,108.395264 
	C469.638855,108.487885 470.302429,108.901802 471.027710,109.640450 
	C470.418457,109.548973 469.747498,109.132774 469.025909,108.395264 
z"/>
<path fill="#C5C7CA" opacity="1.000000" stroke="none" 
	d="
M412.754822,61.988930 
	C412.589539,62.098198 412.422699,62.044529 412.255890,61.990860 
	C412.421692,61.935905 412.587524,61.880947 412.754822,61.988930 
z"/>
<path fill="#9E9EA4" opacity="1.000000" stroke="none" 
	d="
M576.829224,37.760704 
	C576.346741,37.892769 575.688171,37.769985 574.965088,37.343536 
	C575.484802,37.195198 576.068970,37.350525 576.829224,37.760704 
z"/>
<path fill="#9E9EA4" opacity="1.000000" stroke="none" 
	d="
M578.863098,39.021301 
	C578.762207,39.198986 578.432068,39.359562 578.138062,39.255020 
	C578.174194,38.989895 578.633850,39.004196 578.863098,39.021301 
z"/>
<path fill="#86858D" opacity="1.000000" stroke="none" 
	d="
M611.238281,87.935577 
	C610.985718,86.910561 611.044312,85.863922 611.173340,84.430626 
	C611.345703,85.333969 611.447510,86.623962 611.238281,87.935577 
z"/>
<path fill="#8B8B93" opacity="1.000000" stroke="none" 
	d="
M606.019165,60.265018 
	C605.711243,59.939808 605.399841,59.290352 605.161621,58.310375 
	C605.234741,57.979858 605.622742,57.981659 605.816895,57.987320 
	C606.012512,58.642242 606.014038,59.291504 606.019165,60.265018 
z"/>
<path fill="#8B8B93" opacity="1.000000" stroke="none" 
	d="
M608.956543,64.734428 
	C608.326660,63.945400 607.680420,62.820591 607.041382,61.343231 
	C607.679077,62.126667 608.309631,63.262657 608.956543,64.734428 
z"/>
<path fill="#276CC1" opacity="1.000000" stroke="none" 
	d="
M497.147308,49.080341 
	C497.122986,48.892956 497.098694,48.705566 497.046509,48.235958 
	C498.419037,47.301300 499.816986,46.086227 501.220154,46.080173 
	C525.168823,45.976879 549.118164,46.023270 573.531494,46.103836 
	C574.190308,49.304527 571.987671,48.977081 569.966248,49.009098 
	C565.156433,49.085285 560.339600,49.435444 555.539673,49.268707 
	C545.777832,48.929607 540.917603,56.568863 534.712891,61.881626 
	C525.287659,69.951889 516.707092,79.142761 506.655029,86.293449 
	C501.154175,90.206543 500.838440,94.256042 500.976105,99.578644 
	C501.092163,104.064003 501.109589,108.558914 500.939514,113.040833 
	C500.881134,114.578400 500.123016,116.089417 499.040833,117.512100 
	C498.263885,115.609337 498.017395,113.807198 498.014954,112.004723 
	C497.988922,92.770668 498.023651,73.536491 497.966431,54.302582 
	C497.961243,52.561035 497.432770,50.821049 497.147308,49.080341 
z"/>
<path fill="#2266B9" opacity="1.000000" stroke="none" 
	d="
M594.937744,52.739754 
	C594.732910,52.920605 594.488770,52.801067 594.167358,52.428345 
	C594.394958,52.113621 594.664368,52.201691 594.937744,52.739754 
z"/>
<path fill="#B7B9BD" opacity="1.000000" stroke="none" 
	d="
M502.984802,36.300034 
	C503.094574,36.032600 503.295380,36.023647 503.797607,36.026588 
	C503.757965,36.211823 503.416870,36.385166 502.984802,36.300034 
z"/>
<path fill="#000000" opacity="1.000000" stroke="none" 
	d="
M537.536743,127.946983 
	C537.400940,126.872559 537.706421,125.823410 538.029175,124.436310 
	C542.888489,120.954071 546.574829,124.540260 550.763733,126.561661 
	C546.622192,127.238899 542.300171,127.605583 537.536743,127.946983 
z"/>
<path fill="#195DAD" opacity="1.000000" stroke="none" 
	d="
M561.031616,138.960388 
	C560.475159,138.619720 560.185486,138.106186 559.867188,137.286896 
	C560.325195,137.583267 560.811829,138.185379 561.031616,138.960388 
z"/>
<path fill="#276CC1" opacity="1.000000" stroke="none" 
	d="
M539.488220,75.073097 
	C538.348206,76.308151 537.332886,77.423836 537.082825,78.690582 
	C536.738525,80.434784 536.972534,82.293167 536.904358,84.550201 
	C535.901184,84.004211 534.328613,83.119392 534.132568,81.994652 
	C533.713989,79.592842 533.945374,77.064690 534.026367,74.592102 
	C534.133728,71.313416 535.963440,69.868973 539.173645,70.055359 
	C544.575378,70.368980 549.973694,70.795113 555.379883,70.953041 
	C557.753418,71.022385 559.274963,71.510750 558.970337,74.681877 
	C552.625366,75.081734 546.289734,75.051407 539.488220,75.073097 
z"/>
<path fill="#2B6ED5" opacity="1.000000" stroke="none" 
	d="
M497.078491,49.536842 
	C497.432770,50.821049 497.961243,52.561035 497.966431,54.302582 
	C498.023651,73.536491 497.988922,92.770668 498.014954,112.004723 
	C498.017395,113.807198 498.263885,115.609337 498.693176,117.705872 
	C498.723511,118.503029 498.457703,119.005936 498.079620,119.771530 
	C497.662201,118.635628 497.095551,117.237877 497.091095,115.838341 
	C497.021179,93.890144 497.023743,71.941719 497.078491,49.536842 
z"/>
<path fill="#2367BB" opacity="1.000000" stroke="none" 
	d="
M561.816956,75.605225 
	C561.539368,75.791580 561.119751,75.792870 560.389282,75.733780 
	C560.610535,75.588989 561.142761,75.504570 561.816956,75.605225 
z"/>
</svg>