<svg version="1.1" id="Layer_1" xmlns="http://www.w3.org/2000/svg" xmlns:xlink="http://www.w3.org/1999/xlink" x="0px" y="0px"
	 width="100%" viewBox="0 0 233 159" enable-background="new 0 0 233 159" xml:space="preserve">
<path fill="#FEFDFD" opacity="1.000000" stroke="none" 
	d="
M202.000000,160.000000 
	C145.312439,160.000000 88.624878,160.000000 31.650120,159.625824 
	C35.735214,158.441223 40.241005,158.047989 44.442394,156.703522 
	C48.681919,155.346848 51.189407,152.111893 51.126400,147.280930 
	C51.038589,140.548828 42.875858,135.208572 35.133430,136.227036 
	C30.145727,136.883133 24.951838,136.908691 19.954004,136.326736 
	C12.825952,135.496719 5.014508,140.912628 5.014249,147.403137 
	C5.014041,152.637543 8.490401,156.325958 15.140946,157.947861 
	C18.400282,158.742691 21.711994,159.322739 25.000000,160.000000 
	C17.066639,160.000000 9.133278,160.000000 1.000000,160.000000 
	C1.000000,150.646713 1.000000,141.292023 1.260808,131.462830 
	C1.692178,130.954346 1.862739,130.920349 2.265541,130.998352 
	C2.666625,131.078125 2.835468,131.045929 3.464546,131.109100 
	C6.246788,131.217072 8.568797,131.240692 10.890802,131.240265 
	C18.852560,131.238815 26.814917,131.273193 34.775314,131.165802 
	C35.760559,131.152527 36.735394,130.367966 37.715050,129.940811 
	C37.402397,129.242661 37.253315,128.102158 36.751167,127.916481 
	C32.806522,126.457886 34.357059,123.696709 34.623367,121.355515 
	C39.979019,120.871651 44.957024,120.421906 50.070053,119.620346 
	C49.806755,118.528114 49.408436,117.787682 48.547012,116.964973 
	C38.156761,116.882698 28.229612,116.882698 18.096600,116.882698 
	C18.096600,114.329292 18.096600,112.347557 18.558319,110.310989 
	C21.482239,110.213600 23.956615,110.294014 26.399075,110.052139 
	C27.114460,109.981293 27.739128,108.994392 28.405373,108.427345 
	C27.771387,107.799690 27.186626,106.699524 26.494766,106.627449 
	C23.728504,106.339279 20.928967,106.370529 18.098173,105.880539 
	C18.054605,103.742516 18.054605,102.007553 18.054605,99.900124 
	C28.784300,99.900124 38.906193,99.900124 49.290604,99.913284 
	C49.668835,99.627640 49.784550,99.328835 49.971333,98.689438 
	C49.994865,97.889839 49.947330,97.430840 49.913109,96.709579 
	C49.627937,96.332512 49.329453,96.217712 48.565208,96.030792 
	C34.721428,96.012680 21.343410,96.066689 7.734072,96.083176 
	C7.502753,96.045639 7.072265,96.230972 6.710336,96.425308 
	C6.348407,104.516418 6.348407,112.413193 6.348407,120.902771 
	C11.712299,120.902771 16.742334,120.902771 21.672937,120.902771 
	C21.672937,123.384140 21.672937,125.258095 21.672937,127.000000 
	C14.517824,127.000000 7.758912,127.000000 1.000000,127.000000 
	C1.000000,85.077332 1.000000,43.154659 1.000000,1.000000 
	C38.020573,1.000000 75.041626,1.000000 112.467934,1.287219 
	C112.208611,1.939699 111.544037,2.304958 110.493958,2.667296 
	C106.737625,4.777324 103.366806,6.890275 100.021561,8.990814 
	C100.047134,8.978403 100.101601,8.962080 99.946014,9.303154 
	C98.573715,12.376356 97.357002,15.108484 95.766205,17.889732 
	C90.406319,20.485025 94.803482,22.089273 95.811852,24.175232 
	C95.747353,24.894997 95.873047,25.454151 96.000076,26.380512 
	C96.041779,27.235418 96.082146,27.723112 96.122078,28.411510 
	C96.121635,28.612211 96.011131,28.998106 95.749146,29.159981 
	C94.772148,30.209862 94.057144,31.097866 92.948730,32.474461 
	C94.484604,32.195435 95.361183,32.036186 96.627182,31.906376 
	C97.914841,34.297832 98.813072,36.659847 99.947639,39.643341 
	C100.500397,39.977516 101.885300,41.126389 103.477242,41.681396 
	C104.819824,42.149467 106.402794,41.928062 108.014969,42.345459 
	C112.844421,47.196754 118.129692,46.228039 123.823334,44.263184 
	C125.566246,43.556450 127.000404,42.921841 128.640579,42.525944 
	C129.550629,43.201828 130.254639,43.639004 131.062027,44.392109 
	C134.367859,47.584984 137.570343,50.461926 140.750671,53.694069 
	C143.153091,56.366444 145.577682,58.683617 148.144806,61.299339 
	C150.951233,64.239357 153.389450,67.193542 156.394516,69.362320 
	C157.533554,70.184372 160.662338,69.871643 161.657379,68.864311 
	C162.928452,67.577545 164.072906,64.080956 163.335480,63.245026 
	C159.540634,58.943256 155.125275,55.188877 150.956009,51.179810 
	C150.985458,51.116234 150.854355,51.066746 150.916107,50.725143 
	C150.329651,49.897564 149.681442,49.411587 148.872711,48.628143 
	C147.351257,47.236816 145.990295,46.142952 144.562714,44.867867 
	C144.000992,44.449425 143.505905,44.212200 143.004410,43.982735 
	C142.997986,43.990494 143.013947,43.989555 143.068359,43.622860 
	C142.529587,42.379562 141.956268,41.488705 141.339584,40.628956 
	C139.293060,37.775826 137.230942,34.933907 135.516006,31.915901 
	C139.759048,26.403233 137.816498,20.703426 136.938354,14.723717 
	C136.431931,13.836316 135.868652,13.290693 135.274933,12.736292 
	C135.244507,12.727514 135.215332,12.783720 135.267899,12.459776 
	C134.860840,11.432995 134.401199,10.730159 133.895752,9.711338 
	C133.245651,8.905724 132.641373,8.416095 131.855392,7.632040 
	C128.459274,5.665351 125.244858,3.993089 121.770325,2.246478 
	C121.330696,2.189333 121.151176,2.206536 120.725426,2.090279 
	C120.319466,1.637881 120.159729,1.318941 120.000000,1.000001 
	C157.925644,1.000000 195.851288,1.000000 234.000000,1.000000 
	C234.000000,37.353924 234.000000,73.708305 233.604828,110.419937 
	C230.952835,110.464241 228.696030,110.151306 225.999863,109.777435 
	C225.999863,108.038300 226.000839,106.235153 225.999710,104.432007 
	C225.993240,94.177460 225.992950,94.176407 215.859924,95.155724 
	C215.730591,95.168221 215.618256,95.356621 215.054779,95.854645 
	C215.054779,102.243256 214.961243,109.034714 215.088181,115.822060 
	C215.170654,120.232193 215.574448,124.636307 215.909607,129.304138 
	C216.312027,129.668701 216.639130,129.772263 217.403229,129.980408 
	C220.231583,130.035858 222.622925,129.986740 225.285614,129.956177 
	C225.665695,129.659149 225.774429,129.343582 225.952942,128.563629 
	C226.022751,123.515770 226.022751,118.932281 226.022751,114.591057 
	C229.009338,113.995377 231.504669,113.497688 234.000000,113.000000 
	C234.000000,128.574707 234.000000,144.149399 234.000000,160.000000 
	C224.980972,160.000000 215.959152,160.000000 206.643433,159.628311 
	C207.832581,159.159348 209.342484,159.207657 210.794006,158.939774 
	C217.282913,157.742233 223.779526,156.223709 226.003525,148.864761 
	C228.865784,139.393967 219.626740,130.620087 208.432007,131.909164 
	C205.325058,132.266953 202.181396,133.014130 199.106781,132.807190 
	C191.033981,132.263855 184.613892,136.434525 183.344391,143.528534 
	C182.179764,150.036484 186.434998,155.728943 194.162628,157.933701 
	C196.760147,158.674805 199.386703,159.314148 202.000000,160.000000 
M45.400681,108.118095 
	C45.755383,108.812859 46.110085,109.507629 46.464779,110.202400 
	C46.972584,109.467529 47.480389,108.732658 47.897011,107.172981 
	C47.378559,107.381371 46.860104,107.589752 45.400681,108.118095 
M55.038601,129.179550 
	C54.258759,128.688400 53.518787,128.068909 52.668434,127.804703 
	C52.477970,127.745529 51.900845,128.930862 51.501732,129.543259 
	C52.118862,129.763489 52.735992,129.983704 53.483234,130.914383 
	C53.958366,130.615067 54.433502,130.315735 55.038601,129.179550 
M91.731422,43.734596 
	C91.731422,43.734596 91.681206,43.724094 91.267899,43.152046 
	C90.180794,42.101276 89.093697,41.050510 88.165749,39.212639 
	C86.718079,38.057110 85.270401,36.901577 83.884781,35.795574 
	C82.429565,37.068760 81.224342,38.123234 79.305687,39.299927 
	C79.373055,41.569271 77.098991,44.052887 79.986237,46.521191 
	C79.986237,46.521191 79.999519,46.976524 79.274536,46.992119 
	C78.888268,49.465160 78.502007,51.938206 78.115738,54.411247 
	C78.655006,54.503853 79.194283,54.596458 79.733551,54.689060 
	C80.149834,53.875595 80.566116,53.062126 80.812531,52.580608 
	C83.398697,53.542866 85.929062,54.484360 89.634705,55.863148 
	C88.679878,53.480396 88.388634,52.753616 88.698006,51.768425 
	C89.800133,50.691841 90.902260,49.615253 92.649300,48.266670 
	C94.916687,47.495667 97.184082,46.724667 99.389977,46.688114 
	C99.312393,48.456539 99.234802,50.224968 98.853920,52.589413 
	C98.154877,53.022057 97.455826,53.454697 97.451538,53.457352 
	C97.691933,55.754829 97.716660,57.570160 98.114929,59.299461 
	C98.435379,60.690887 99.207741,61.978233 100.097572,63.929253 
	C102.728783,65.236496 105.360001,66.543732 108.618317,67.876343 
	C109.456779,67.343246 110.295242,66.810143 111.636635,66.307701 
	C115.399727,67.561531 115.832039,64.334190 116.947647,62.231136 
	C118.823288,58.695316 117.937759,55.600037 115.025475,52.363708 
	C114.677498,52.207146 114.329529,52.050583 113.340851,51.646420 
	C112.898331,51.729053 112.455818,51.811687 111.496292,51.811707 
	C111.333427,51.874413 111.170570,51.937119 110.642220,51.853493 
	C110.642220,51.853493 110.251350,51.900600 109.938980,51.239563 
	C108.367668,50.797283 106.796349,50.355007 105.037651,49.258644 
	C104.179550,48.114456 103.321442,46.970264 102.341339,45.094341 
	C101.564972,44.761745 100.788612,44.429150 99.431961,43.744331 
	C98.349487,43.727810 97.267014,43.711288 95.830421,43.152328 
	C95.238831,43.444569 94.647240,43.736809 93.311386,44.473827 
	C92.799370,44.234650 92.287354,43.995476 91.731422,43.734596 
M97.023689,154.104645 
	C96.976570,134.727722 96.929451,115.350807 96.916824,95.412331 
	C96.612038,95.277794 96.307243,95.143257 95.140800,94.827759 
	C93.093216,94.887596 91.045624,94.947433 88.410347,94.977852 
	C88.284576,95.315575 88.158806,95.653297 87.860329,96.899117 
	C87.860329,100.363342 87.860329,103.827560 87.860329,107.439461 
	C85.860489,107.439461 84.336578,107.439461 82.403511,107.439461 
	C82.403511,105.293083 82.386154,103.482246 82.407074,101.671837 
	C82.452843,97.712257 80.287010,96.573524 76.670380,96.910736 
	C70.881638,97.450462 65.077896,97.829369 58.247131,98.355919 
	C63.039555,101.539215 68.138062,98.818558 72.730354,100.637955 
	C72.448555,118.736580 75.348495,137.638901 57.948105,151.217209 
	C59.781517,151.418823 61.469711,151.400681 62.743050,150.664734 
	C74.473656,143.884933 81.220009,133.848572 82.192307,120.180130 
	C82.402222,117.229164 82.491760,114.269638 82.654358,110.955231 
	C84.544296,111.086906 86.094681,111.194923 87.864189,111.318199 
	C87.864189,115.749451 87.647736,119.745636 87.922958,123.707664 
	C88.218819,127.966980 87.482430,130.970551 82.103149,131.192230 
	C83.972664,131.739563 85.842178,132.286911 88.039108,132.930099 
	C88.039108,140.383240 88.039108,147.695831 87.937347,155.505722 
	C88.011482,155.657822 88.085625,155.809921 88.440186,156.707703 
	C90.968925,156.506653 93.497658,156.305588 96.526413,155.940033 
	C96.639679,155.638260 96.752945,155.336472 97.023689,154.104645 
M146.109009,96.911644 
	C137.399567,96.968010 128.690125,97.024376 119.500351,96.979370 
	C119.500351,96.979370 119.040810,97.152008 118.264145,97.495720 
	C118.264145,115.023026 118.264145,132.550323 118.264145,150.156433 
	C128.739655,150.156433 138.635544,150.156433 148.763763,150.156433 
	C148.850647,148.955673 148.980331,147.991531 148.981216,147.027252 
	C148.995056,131.749557 149.006470,116.471802 148.963760,101.194206 
	C148.960709,100.102119 148.533646,99.011223 148.084793,97.394264 
	C147.733749,97.300194 147.382721,97.206116 146.109009,96.911644 
M156.050903,139.497391 
	C156.050888,142.322037 156.050873,145.146667 156.050903,147.971313 
	C156.050980,157.733948 156.051224,157.737671 165.847626,157.090668 
	C166.113846,157.073074 166.360626,156.761246 167.020645,156.310776 
	C167.020645,146.186874 167.020645,135.781448 167.020645,125.433174 
	C173.390854,124.693520 173.390854,124.693520 173.624512,120.989120 
	C171.516281,120.989120 169.431580,120.989120 166.892273,120.989120 
	C166.892273,112.195541 166.892273,103.802437 166.892273,95.346764 
	C163.049713,95.346764 159.681641,95.346764 156.050919,95.346764 
	C156.050919,109.960281 156.050919,124.229240 156.050903,139.497391 
M101.281227,98.899857 
	C101.281380,115.690849 101.281197,132.481842 101.281837,149.272842 
	C101.282143,157.284866 101.853180,157.752060 110.420792,156.574738 
	C110.420792,136.100418 110.420792,115.600548 110.420792,94.690948 
	C108.144264,94.690948 106.057632,94.290787 104.253258,94.831879 
	C103.053894,95.191551 102.257858,96.896202 101.281227,98.899857 
M199.403442,97.057465 
	C192.150497,97.057465 184.897537,97.057465 177.624786,97.057465 
	C177.624786,107.022026 177.624786,116.266510 177.624786,125.888206 
	C187.753265,125.888206 197.554703,125.934898 207.354065,125.814163 
	C208.307526,125.802414 209.248245,124.757011 210.194885,124.191414 
	C210.042633,123.758766 209.890366,123.326111 209.738113,122.893463 
	C203.943832,122.893463 198.142731,123.044128 192.360260,122.782799 
	C190.991135,122.720917 188.572220,121.333183 188.527008,120.457703 
	C188.196869,114.063942 188.349167,107.645271 188.349167,101.021645 
	C192.460266,101.021645 195.813873,101.295021 199.099136,100.938530 
	C201.926682,100.631706 206.231583,102.964478 207.337036,97.057480 
	C204.661896,97.057480 202.516449,97.057480 199.403442,97.057465 
M75.814240,44.739147 
	C75.973114,44.624306 76.131996,44.509460 76.290878,44.394619 
	C76.069481,44.417805 75.848076,44.440994 75.814240,44.739147 
M29.500004,109.997849 
	C29.633121,109.798355 29.766239,109.598854 29.899355,109.399361 
	C29.599571,109.432907 29.299786,109.466454 29.500004,109.997849 
z"/>
<path fill="#7A5C5D" opacity="1.000000" stroke="none" 
	d="
M7.965391,96.120705 
	C21.343410,96.066689 34.721428,96.012680 48.637825,96.237732 
	C49.347916,96.778946 49.589115,96.930626 49.899796,96.971840 
	C49.947330,97.430840 49.994865,97.889839 49.763397,98.761375 
	C49.221588,99.346413 49.069489,99.588486 49.028088,99.900124 
	C38.906193,99.900124 28.784300,99.900124 18.054605,99.900124 
	C18.054605,102.007553 18.054605,103.742516 18.059309,106.392944 
	C18.074875,108.327553 18.085737,109.346680 18.096600,110.365814 
	C18.096600,112.347557 18.096600,114.329292 18.096600,116.882698 
	C28.229612,116.882698 38.156761,116.882698 48.528198,117.292938 
	C49.293335,118.459503 49.614182,119.215836 49.935028,119.972160 
	C44.957024,120.421906 39.979019,120.871651 34.623367,121.355515 
	C34.357059,123.696709 32.806522,126.457886 36.751167,127.916481 
	C37.253315,128.102158 37.402397,129.242661 37.715050,129.940811 
	C36.735394,130.367966 35.760559,131.152527 34.775314,131.165802 
	C26.814917,131.273193 18.852560,131.238815 10.890802,131.240265 
	C8.568797,131.240692 6.246788,131.217072 3.390418,130.939056 
	C2.581803,130.744568 2.307551,130.815460 2.033300,130.886368 
	C1.862739,130.920349 1.692178,130.954346 1.260808,130.994171 
	C1.000000,129.933334 1.000000,128.866653 1.000000,127.399994 
	C7.758912,127.000000 14.517824,127.000000 21.672937,127.000000 
	C21.672937,125.258095 21.672937,123.384140 21.672937,120.902771 
	C16.742334,120.902771 11.712299,120.902771 6.348407,120.902771 
	C6.348407,112.413193 6.348407,104.516418 6.809750,96.559677 
	C7.271093,96.499710 7.708623,96.530060 7.708623,96.530060 
	C7.708623,96.530060 7.965391,96.120705 7.965391,96.120705 
z"/>
<path fill="#735454" opacity="1.000000" stroke="none" 
	d="
M202.399994,160.000000 
	C199.386703,159.314148 196.760147,158.674805 194.162628,157.933701 
	C186.434998,155.728943 182.179764,150.036484 183.344391,143.528534 
	C184.613892,136.434525 191.033981,132.263855 199.106781,132.807190 
	C202.181396,133.014130 205.325058,132.266953 208.432007,131.909164 
	C219.626740,130.620087 228.865784,139.393967 226.003525,148.864761 
	C223.779526,156.223709 217.282913,157.742233 210.794006,158.939774 
	C209.342484,159.207657 207.832581,159.159348 206.174774,159.628311 
	C204.933334,160.000000 203.866653,160.000000 202.399994,160.000000 
M197.587051,136.890305 
	C196.446335,139.873688 194.540482,142.804581 194.331406,145.851883 
	C193.949677,151.416107 199.061035,157.082016 203.443069,156.986877 
	C211.159302,156.819305 216.194168,151.658325 215.643692,144.480637 
	C214.974991,135.761383 207.713654,132.386917 197.587051,136.890305 
z"/>
<path fill="#745455" opacity="1.000000" stroke="none" 
	d="
M25.428463,160.000000 
	C21.711994,159.322739 18.400282,158.742691 15.140946,157.947861 
	C8.490401,156.325958 5.014041,152.637543 5.014249,147.403137 
	C5.014508,140.912628 12.825952,135.496719 19.954004,136.326736 
	C24.951838,136.908691 30.145727,136.883133 35.133430,136.227036 
	C42.875858,135.208572 51.038589,140.548828 51.126400,147.280930 
	C51.189407,152.111893 48.681919,155.346848 44.442394,156.703522 
	C40.241005,158.047989 35.735214,158.441223 31.181463,159.625824 
	C29.285643,160.000000 27.571283,160.000000 25.428463,160.000000 
M34.984695,140.172104 
	C30.861589,140.110550 26.716482,139.758224 22.621471,140.068054 
	C18.399847,140.387436 16.023582,143.062347 16.042681,147.376587 
	C16.062824,151.926697 18.672724,154.473175 23.045656,154.916321 
	C26.165091,155.232437 29.347803,155.141617 32.488430,154.973557 
	C36.053307,154.782776 39.131065,153.400528 39.862324,149.536743 
	C40.584496,145.720978 40.007214,142.170990 34.984695,140.172104 
z"/>
<path fill="#725354" opacity="1.000000" stroke="none" 
	d="
M234.000000,112.666664 
	C231.504669,113.497688 229.009338,113.995377 226.022751,114.591057 
	C226.022751,118.932281 226.022751,123.515770 225.751770,128.653641 
	C225.233551,129.392563 225.078033,129.635757 225.014267,129.937622 
	C222.622925,129.986740 220.231583,130.035858 217.271149,129.775879 
	C216.450485,129.248398 216.161224,129.107178 215.834290,129.043121 
	C215.574448,124.636307 215.170654,120.232193 215.088181,115.822060 
	C214.961243,109.034714 215.054779,102.243256 215.054779,95.854645 
	C215.618256,95.356621 215.730591,95.168221 215.859924,95.155724 
	C225.992950,94.176407 225.993240,94.177460 225.999710,104.432007 
	C226.000839,106.235153 225.999863,108.038300 225.999863,109.777435 
	C228.696030,110.151306 230.952835,110.464241 233.604828,110.888596 
	C234.000000,111.444443 234.000000,111.888893 234.000000,112.666664 
z"/>
<path fill="#694647" opacity="1.000000" stroke="none" 
	d="
M119.666664,1.000001 
	C120.159729,1.318941 120.319466,1.637881 120.742859,2.321738 
	C121.156235,2.934528 121.305954,3.182401 121.455681,3.430276 
	C121.647263,3.060463 121.838852,2.690647 122.030441,2.320828 
	C125.244858,3.993089 128.459274,5.665351 131.884689,7.959603 
	C132.710983,9.063502 133.326279,9.545411 133.941559,10.027321 
	C134.401199,10.730159 134.860840,11.432995 134.923660,12.515876 
	C134.065857,12.956851 133.604843,13.017782 132.949097,12.824005 
	C132.156891,12.386060 131.559418,12.202824 130.712280,11.789268 
	C126.647339,9.570735 122.832077,7.582519 119.195961,5.360388 
	C118.916740,3.750983 118.458366,2.375491 118.000000,1.000000 
	C118.444443,1.000000 118.888893,1.000000 119.666664,1.000001 
z"/>
<path fill="#7F5454" opacity="1.000000" stroke="none" 
	d="
M117.583336,1.000000 
	C118.458366,2.375491 118.916740,3.750983 118.760979,5.473507 
	C115.763397,5.915563 113.379936,6.010585 110.996185,5.675860 
	C110.957085,4.387482 110.918274,3.528851 110.879463,2.670219 
	C111.544037,2.304958 112.208611,1.939699 112.936592,1.287219 
	C114.388893,1.000000 115.777779,1.000000 117.583336,1.000000 
z"/>
<path fill="#735354" opacity="1.000000" stroke="none" 
	d="
M119.980675,97.080734 
	C128.690125,97.024376 137.399567,96.968010 146.721222,97.226776 
	C147.656876,97.667862 147.980316,97.793816 148.303741,97.919769 
	C148.533646,99.011223 148.960709,100.102119 148.963760,101.194206 
	C149.006470,116.471802 148.995056,131.749557 148.981216,147.027252 
	C148.980331,147.991531 148.850647,148.955673 148.763763,150.156433 
	C138.635544,150.156433 128.739655,150.156433 118.264145,150.156433 
	C118.264145,132.550323 118.264145,115.023026 118.748962,97.467560 
	C119.482750,97.319847 119.731712,97.200287 119.980675,97.080734 
M138.748047,127.499382 
	C138.748047,118.739136 138.748047,109.978882 138.748047,101.027817 
	C135.251892,101.027817 132.345413,101.027817 129.329773,101.027817 
	C129.329773,116.634933 129.329773,131.990067 129.329773,147.592224 
	C130.629913,147.665146 131.605301,147.627029 132.546585,147.788086 
	C137.691620,148.668503 139.331161,146.472809 138.835373,141.450165 
	C138.413040,137.171890 138.747971,132.818878 138.748047,127.499382 
z"/>
<path fill="#725253" opacity="1.000000" stroke="none" 
	d="
M96.882339,95.973885 
	C96.929451,115.350807 96.976570,134.727722 96.742477,154.690475 
	C96.244179,155.514511 96.099228,155.790588 96.026398,156.104538 
	C93.497658,156.305588 90.968925,156.506653 88.442940,156.232895 
	C88.310165,155.508194 88.174637,155.258301 88.039108,155.008408 
	C88.039108,147.695831 88.039108,140.383240 88.039108,132.930099 
	C85.842178,132.286911 83.972664,131.739563 82.103149,131.192230 
	C87.482430,130.970551 88.218819,127.966980 87.922958,123.707664 
	C87.647736,119.745636 87.864189,115.749451 87.864189,111.318199 
	C86.094681,111.194923 84.544296,111.086906 82.654358,110.955231 
	C82.491760,114.269638 82.402222,117.229164 82.192307,120.180130 
	C81.220009,133.848572 74.473656,143.884933 62.743050,150.664734 
	C61.469711,151.400681 59.781517,151.418823 57.948105,151.217209 
	C75.348495,137.638901 72.448555,118.736580 72.730354,100.637955 
	C68.138062,98.818558 63.039555,101.539215 58.247131,98.355919 
	C65.077896,97.829369 70.881638,97.450462 76.670380,96.910736 
	C80.287010,96.573524 82.452843,97.712257 82.407074,101.671837 
	C82.386154,103.482246 82.403511,105.293083 82.403511,107.439461 
	C84.336578,107.439461 85.860489,107.439461 87.860329,107.439461 
	C87.860329,103.827560 87.860329,100.363342 88.166107,96.346573 
	C88.741776,95.594986 88.917152,95.332733 88.998039,95.007271 
	C91.045624,94.947433 93.093216,94.887596 95.657082,95.129570 
	C96.335686,95.708900 96.572014,95.889732 96.882339,95.973885 
z"/>
<path fill="#F6F3F3" opacity="1.000000" stroke="none" 
	d="
M110.996483,6.105607 
	C113.379936,6.010585 115.763397,5.915563 118.581833,5.707421 
	C122.832077,7.582519 126.647339,9.570735 130.735931,12.119829 
	C131.588257,13.216745 132.167282,13.752785 132.851135,14.616856 
	C136.154144,20.617683 134.969406,26.311085 132.778564,32.230103 
	C129.330658,35.235950 126.140366,38.019695 122.499825,40.823795 
	C118.082657,40.784466 114.115753,40.724789 110.052750,40.326553 
	C104.571869,37.492973 101.292114,33.210850 99.343834,27.644951 
	C98.366936,27.816555 97.244728,28.013681 96.122520,28.210808 
	C96.082146,27.723112 96.041779,27.235418 96.200500,26.224285 
	C96.267090,25.138771 96.134567,24.576694 96.002045,24.014618 
	C94.803482,22.089273 90.406319,20.485025 95.740936,17.909416 
	C96.089752,17.879976 96.102821,17.818428 96.119827,18.167208 
	C97.642754,20.642502 98.529053,20.195822 99.040482,17.475609 
	C99.410492,16.194839 99.405724,14.915854 100.027344,14.416284 
	C103.601562,11.543826 107.324181,8.856022 110.996483,6.105607 
M108.141472,33.957111 
	C110.825981,37.149010 115.300438,38.349350 115.944038,36.035404 
	C116.661308,33.456612 116.807213,30.183348 115.782677,27.830286 
	C115.006004,26.046497 112.004417,25.231447 109.321060,23.589033 
	C106.572464,22.667913 103.752464,22.090956 102.875420,25.857059 
	C102.135147,29.035892 104.989983,32.893997 108.141472,33.957111 
z"/>
<path fill="#735455" opacity="1.000000" stroke="none" 
	d="
M156.050903,138.997803 
	C156.050919,124.229240 156.050919,109.960281 156.050919,95.346764 
	C159.681641,95.346764 163.049713,95.346764 166.892273,95.346764 
	C166.892273,103.802437 166.892273,112.195541 166.892273,120.989120 
	C169.431580,120.989120 171.516281,120.989120 173.624512,120.989120 
	C173.390854,124.693520 173.390854,124.693520 167.020645,125.433174 
	C167.020645,135.781448 167.020645,146.186874 167.020645,156.310776 
	C166.360626,156.761246 166.113846,157.073074 165.847626,157.090668 
	C156.051224,157.737671 156.050980,157.733948 156.050903,147.971313 
	C156.050873,145.146667 156.050888,142.322037 156.050903,138.997803 
z"/>
<path fill="#7B5E5F" opacity="1.000000" stroke="none" 
	d="
M101.281258,98.449341 
	C102.257858,96.896202 103.053894,95.191551 104.253258,94.831879 
	C106.057632,94.290787 108.144264,94.690948 110.420792,94.690948 
	C110.420792,115.600548 110.420792,136.100418 110.420792,156.574738 
	C101.853180,157.752060 101.282143,157.284866 101.281837,149.272842 
	C101.281197,132.481842 101.281380,115.690849 101.281258,98.449341 
z"/>
<path fill="#77595A" opacity="1.000000" stroke="none" 
	d="
M199.887207,97.057472 
	C202.516449,97.057480 204.661896,97.057480 207.337036,97.057480 
	C206.231583,102.964478 201.926682,100.631706 199.099136,100.938530 
	C195.813873,101.295021 192.460266,101.021645 188.349167,101.021645 
	C188.349167,107.645271 188.196869,114.063942 188.527008,120.457703 
	C188.572220,121.333183 190.991135,122.720917 192.360260,122.782799 
	C198.142731,123.044128 203.943832,122.893463 209.738113,122.893463 
	C209.890366,123.326111 210.042633,123.758766 210.194885,124.191414 
	C209.248245,124.757011 208.307526,125.802414 207.354065,125.814163 
	C197.554703,125.934898 187.753265,125.888206 177.624786,125.888206 
	C177.624786,116.266510 177.624786,107.022026 177.624786,97.057465 
	C184.897537,97.057465 192.150497,97.057465 199.887207,97.057472 
z"/>
<path fill="#634949" opacity="1.000000" stroke="none" 
	d="
M122.950081,40.803444 
	C126.140366,38.019695 129.330658,35.235950 133.135330,32.232117 
	C134.224747,32.037243 134.699783,32.062462 135.174805,32.087681 
	C137.230942,34.933907 139.293060,37.775826 141.339584,40.628956 
	C141.956268,41.488705 142.529587,42.379562 142.751526,43.769108 
	C141.844437,47.300991 141.308624,50.319931 140.772812,53.338871 
	C137.570343,50.461926 134.367859,47.584984 131.016541,44.017685 
	C130.056641,42.980629 129.245605,42.633930 128.434555,42.287231 
	C127.000404,42.921841 125.566246,43.556450 123.547379,44.078766 
	C122.958466,42.912128 122.954277,41.857784 122.950081,40.803444 
z"/>
<path fill="#524E4E" opacity="1.000000" stroke="none" 
	d="
M150.926559,51.243389 
	C155.125275,55.188877 159.540634,58.943256 163.335480,63.245026 
	C164.072906,64.080956 162.928452,67.577545 161.657379,68.864311 
	C160.662338,69.871643 157.533554,70.184372 156.394516,69.362320 
	C153.389450,67.193542 150.951233,64.239357 148.556946,61.270615 
	C149.564163,59.962315 150.792404,59.048180 150.937149,57.986336 
	C151.237900,55.780167 150.964157,53.495682 150.926559,51.243389 
z"/>
<path fill="#794143" opacity="1.000000" stroke="none" 
	d="
M110.251350,51.900600 
	C110.251350,51.900600 110.642220,51.853493 110.923973,52.095932 
	C111.474915,52.190357 111.744110,52.042339 112.013298,51.894321 
	C112.455818,51.811687 112.898331,51.729053 113.769470,52.011490 
	C114.480217,52.577808 114.762337,52.779060 115.044464,52.980309 
	C117.937759,55.600037 118.823288,58.695316 116.947647,62.231136 
	C115.832039,64.334190 115.399727,67.561531 111.168777,65.980179 
	C109.473976,65.431885 108.247047,65.211105 107.019264,64.545456 
	C107.015419,61.724277 107.012413,59.347961 107.157249,56.636482 
	C108.287170,54.834415 109.269264,53.367508 110.251350,51.900600 
M111.700722,55.576950 
	C111.990303,55.300358 112.279877,55.023769 112.569450,54.747177 
	C112.454773,54.627373 112.246719,54.397106 112.238899,54.403717 
	C111.933578,54.661808 111.646507,54.941486 111.700722,55.576950 
z"/>
<path fill="#463738" opacity="1.000000" stroke="none" 
	d="
M150.956009,51.179810 
	C150.964157,53.495682 151.237900,55.780167 150.937149,57.986336 
	C150.792404,59.048180 149.564163,59.962315 148.414413,60.972065 
	C145.577682,58.683617 143.153091,56.366444 140.750671,53.694069 
	C141.308624,50.319931 141.844437,47.300991 142.697098,44.135803 
	C143.013947,43.989555 142.997986,43.990494 143.070435,44.252182 
	C143.638382,44.692276 144.133865,44.870682 144.629349,45.049088 
	C145.990295,46.142952 147.351257,47.236816 148.889175,48.953171 
	C149.662216,50.072685 150.258286,50.569717 150.854355,51.066746 
	C150.854355,51.066746 150.985458,51.116234 150.956009,51.179810 
z"/>
<path fill="#9E3D3F" opacity="1.000000" stroke="none" 
	d="
M88.006599,39.999741 
	C89.093697,41.050510 90.180794,42.101276 91.197220,43.654282 
	C90.770378,44.443478 90.414215,44.730438 89.692780,45.074455 
	C87.088753,48.997459 86.796921,50.633286 88.097397,52.026833 
	C88.388634,52.753616 88.679878,53.480396 89.634705,55.863148 
	C85.929062,54.484360 83.398697,53.542866 80.812531,52.580608 
	C80.566116,53.062126 80.149834,53.875595 79.733551,54.689060 
	C79.194283,54.596458 78.655006,54.503853 78.115738,54.411247 
	C78.502007,51.938206 78.888268,49.465160 79.527512,47.329491 
	C78.261200,52.687267 82.307556,49.256527 83.749809,49.732300 
	C83.138412,49.478367 82.527008,49.224430 81.992950,48.643105 
	C82.123573,47.871143 82.176849,47.426567 82.364319,46.871017 
	C82.364265,46.499111 82.230026,46.238174 81.793762,45.861229 
	C81.283508,45.801449 81.075272,45.857677 80.623123,45.901779 
	C80.379211,45.889652 79.925201,46.069767 79.925201,46.069767 
	C77.098991,44.052887 79.373055,41.569271 79.798927,39.514442 
	C80.584068,40.809589 80.875977,41.890217 80.955666,42.185230 
	C83.605049,41.364033 85.805824,40.681889 88.006599,39.999741 
M86.724991,48.110348 
	C86.533028,47.564484 86.341057,47.018623 86.149094,46.472755 
	C85.871002,46.601471 85.592911,46.730186 85.314827,46.858906 
	C85.639931,47.419830 85.965034,47.980755 86.724991,48.110348 
z"/>
<path fill="#7D3536" opacity="1.000000" stroke="none" 
	d="
M107.009415,56.971645 
	C107.012413,59.347961 107.015419,61.724277 107.132233,64.829819 
	C107.494438,66.323021 107.742828,67.086998 107.991211,67.850975 
	C105.360001,66.543732 102.728783,65.236496 100.134720,63.347851 
	C100.863106,62.393066 101.554359,62.019684 101.705124,61.938244 
	C100.818748,58.478592 99.987984,55.235992 99.157211,51.993393 
	C99.234802,50.224968 99.312393,48.456539 99.585831,46.370163 
	C99.781677,46.052208 100.123390,46.006752 100.513672,45.989021 
	C101.423752,45.922886 101.943550,45.874481 102.463341,45.826077 
	C103.321442,46.970264 104.179550,48.114456 104.741234,49.621017 
	C103.924858,50.032486 103.404907,50.081581 102.624908,50.356190 
	C102.565453,52.122036 102.766045,53.662369 103.059555,55.541969 
	C104.438126,56.244709 105.723770,56.608177 107.009415,56.971645 
z"/>
<path fill="#8D504F" opacity="1.000000" stroke="none" 
	d="
M110.996185,5.675859 
	C107.324181,8.856022 103.601562,11.543826 100.027344,14.416284 
	C99.405724,14.915854 99.410492,16.194839 98.685516,17.411560 
	C97.530991,17.745670 96.816910,17.782049 96.102821,17.818428 
	C96.102821,17.818428 96.089752,17.879976 96.115021,17.860294 
	C97.357002,15.108484 98.573715,12.376356 99.587845,9.475908 
	C99.688362,9.743240 99.985718,10.183306 100.308418,10.603935 
	C100.328468,10.630073 100.547493,10.503552 100.673950,10.448053 
	C100.447960,9.966443 100.221970,9.484833 99.995979,9.003223 
	C103.366806,6.890275 106.737625,4.777324 110.493958,2.667297 
	C110.918274,3.528851 110.957085,4.387482 110.996185,5.675859 
z"/>
<path fill="#C9A6A6" opacity="1.000000" stroke="none" 
	d="
M96.122078,28.411510 
	C97.244728,28.013681 98.366936,27.816555 99.343834,27.644951 
	C101.292114,33.210850 104.571869,37.492973 109.761841,40.485703 
	C109.004478,41.326218 108.441917,41.669029 107.879356,42.011841 
	C106.402794,41.928062 104.819824,42.149467 103.477242,41.681396 
	C101.885300,41.126389 100.500397,39.977516 99.947639,39.643341 
	C98.813072,36.659847 97.914841,34.297832 96.563972,31.551807 
	C96.077942,30.444569 96.044533,29.721338 96.011131,28.998106 
	C96.011131,28.998106 96.121635,28.612211 96.122078,28.411510 
M100.969978,38.038330 
	C100.853737,37.271057 100.737503,36.503780 100.621269,35.736507 
	C100.395615,35.789886 100.169968,35.843266 99.944313,35.896645 
	C100.124130,36.752872 100.303955,37.609097 100.969978,38.038330 
z"/>
<path fill="#835959" opacity="1.000000" stroke="none" 
	d="
M108.014969,42.345459 
	C108.441917,41.669029 109.004478,41.326218 109.857941,40.824257 
	C114.115753,40.724789 118.082657,40.784466 122.499825,40.823792 
	C122.954277,41.857784 122.958466,42.912128 123.238617,44.150890 
	C118.129692,46.228039 112.844421,47.196754 108.014969,42.345459 
z"/>
<path fill="#49292A" opacity="1.000000" stroke="none" 
	d="
M135.516006,31.915901 
	C134.699783,32.062462 134.224747,32.037243 133.392975,32.010017 
	C134.969406,26.311085 136.154144,20.617683 132.982376,14.324734 
	C133.053772,13.495958 133.098801,13.287336 133.143845,13.078714 
	C133.604843,13.017782 134.065857,12.956851 134.871094,12.839820 
	C135.215332,12.783720 135.244507,12.727514 135.180603,13.035973 
	C135.704941,13.918119 136.293213,14.491808 136.881470,15.065495 
	C137.816498,20.703426 139.759048,26.403233 135.516006,31.915901 
z"/>
<path fill="#7F3D3E" opacity="1.000000" stroke="none" 
	d="
M107.157249,56.636482 
	C105.723770,56.608177 104.438126,56.244709 103.329620,55.318077 
	C103.299484,53.213501 103.092216,51.672089 102.884949,50.130676 
	C103.404907,50.081581 103.924858,50.032486 104.834930,49.948059 
	C106.796349,50.355007 108.367668,50.797283 110.095169,51.570084 
	C109.269264,53.367508 108.287170,54.834415 107.157249,56.636482 
z"/>
<path fill="#955757" opacity="1.000000" stroke="none" 
	d="
M99.005569,52.291405 
	C99.987984,55.235992 100.818748,58.478592 101.705124,61.938244 
	C101.554359,62.019684 100.863106,62.393066 99.975723,63.039104 
	C99.207741,61.978233 98.435379,60.690887 98.114929,59.299461 
	C97.716660,57.570160 97.691933,55.754829 97.451538,53.457352 
	C97.455826,53.454697 98.154877,53.022057 99.005569,52.291405 
z"/>
<path fill="#9E4647" opacity="1.000000" stroke="none" 
	d="
M88.086174,39.606190 
	C85.805824,40.681889 83.605049,41.364033 80.955666,42.185230 
	C80.875977,41.890217 80.584068,40.809589 80.155640,39.453331 
	C81.224342,38.123234 82.429565,37.068760 83.884781,35.795574 
	C85.270401,36.901577 86.718079,38.057110 88.086174,39.606190 
z"/>
<path fill="#8D504F" opacity="1.000000" stroke="none" 
	d="
M100.123390,46.006752 
	C100.123390,46.006752 99.781677,46.052208 99.616577,46.002937 
	C97.184082,46.724667 94.916687,47.495667 92.318451,48.142506 
	C91.979370,47.497032 91.971146,46.975723 92.058701,46.005226 
	C92.028099,44.956127 91.901726,44.356213 91.775345,43.756302 
	C92.287354,43.995476 92.799370,44.234650 93.649033,44.237350 
	C93.986687,44.000874 94.005585,43.928352 93.796188,44.320312 
	C94.062462,44.808472 94.538124,44.904675 95.285980,44.864471 
	C95.766968,44.383636 95.975754,44.039204 96.184540,43.694771 
	C97.267014,43.711288 98.349487,43.727810 99.726662,44.239433 
	C100.055374,45.158604 100.089378,45.582680 100.123390,46.006752 
z"/>
<path fill="#694647" opacity="1.000000" stroke="none" 
	d="
M18.558319,110.310989 
	C18.085737,109.346680 18.074875,108.327553 18.102877,106.796013 
	C20.928967,106.370529 23.728504,106.339279 26.494766,106.627449 
	C27.186626,106.699524 27.771387,107.799690 28.405373,108.427345 
	C27.739128,108.994392 27.114460,109.981293 26.399075,110.052139 
	C23.956615,110.294014 21.482239,110.213600 18.558319,110.310989 
z"/>
<path fill="#9E4647" opacity="1.000000" stroke="none" 
	d="
M91.962921,46.454414 
	C91.971146,46.975723 91.979370,47.497032 91.995995,48.278503 
	C90.902260,49.615253 89.800133,50.691841 88.397705,51.897629 
	C86.796921,50.633286 87.088753,48.997459 89.796829,45.376274 
	C90.831734,45.898830 91.397331,46.176620 91.962921,46.454414 
z"/>
<path fill="#C0888A" opacity="1.000000" stroke="none" 
	d="
M79.955719,46.295479 
	C79.925201,46.069767 80.379211,45.889652 80.648270,46.243095 
	C81.250084,47.387859 81.582840,48.179176 81.915604,48.970493 
	C82.527008,49.224430 83.138412,49.478367 83.749809,49.732300 
	C82.307556,49.256527 78.261200,52.687267 79.890007,47.321693 
	C79.999519,46.976524 79.986237,46.521191 79.955719,46.295479 
z"/>
<path fill="#7F3D3E" opacity="1.000000" stroke="none" 
	d="
M108.304764,67.863663 
	C107.742828,67.086998 107.494438,66.323021 107.133087,65.274689 
	C108.247047,65.211105 109.473976,65.431885 110.917313,65.964844 
	C110.295242,66.810143 109.456779,67.343246 108.304764,67.863663 
z"/>
<path fill="#F6F3F3" opacity="1.000000" stroke="none" 
	d="
M95.749146,29.159981 
	C96.044533,29.721338 96.077942,30.444569 96.174553,31.522369 
	C95.361183,32.036186 94.484604,32.195435 92.948730,32.474461 
	C94.057144,31.097866 94.772148,30.209862 95.749146,29.159981 
z"/>
<path fill="#7A5C5D" opacity="1.000000" stroke="none" 
	d="
M53.353123,130.203934 
	C52.735992,129.983704 52.118862,129.763489 51.501732,129.543259 
	C51.900845,128.930862 52.477970,127.745529 52.668434,127.804703 
	C53.518787,128.068909 54.258759,128.688400 54.580910,129.613098 
	C53.866520,130.099060 53.609821,130.151489 53.353123,130.203934 
z"/>
<path fill="#7F6868" opacity="1.000000" stroke="none" 
	d="
M136.938354,14.723718 
	C136.293213,14.491808 135.704941,13.918119 135.211029,13.044750 
	C135.868652,13.290693 136.431931,13.836316 136.938354,14.723718 
z"/>
<path fill="#7A5C5D" opacity="1.000000" stroke="none" 
	d="
M47.988197,107.997787 
	C47.480389,108.732658 46.972584,109.467529 46.464783,110.202400 
	C46.110085,109.507629 45.755383,108.812859 46.281250,108.037354 
	C47.437279,107.970345 47.712738,107.984062 47.988197,107.997787 
z"/>
<path fill="#7F6868" opacity="1.000000" stroke="none" 
	d="
M133.895752,9.711336 
	C133.326279,9.545411 132.710983,9.063502 132.066391,8.254029 
	C132.641373,8.416095 133.245651,8.905724 133.895752,9.711336 
z"/>
<path fill="#C9A6A6" opacity="1.000000" stroke="none" 
	d="
M95.811852,24.175232 
	C96.134567,24.576694 96.267090,25.138771 96.199173,25.857075 
	C95.873047,25.454151 95.747353,24.894997 95.811852,24.175232 
z"/>
<path fill="#7F3D3E" opacity="1.000000" stroke="none" 
	d="
M100.513672,45.989021 
	C100.089378,45.582680 100.055374,45.158604 100.016800,44.415543 
	C100.788612,44.429150 101.564972,44.761745 102.402344,45.460209 
	C101.943550,45.874481 101.423752,45.922886 100.513672,45.989021 
z"/>
<path fill="#835959" opacity="1.000000" stroke="none" 
	d="
M128.640579,42.525944 
	C129.245605,42.633930 130.056641,42.980629 130.913177,43.701752 
	C130.254639,43.639004 129.550629,43.201828 128.640579,42.525944 
z"/>
<path fill="#524E4E" opacity="1.000000" stroke="none" 
	d="
M150.916107,50.725143 
	C150.258286,50.569717 149.662216,50.072685 149.049683,49.250633 
	C149.681442,49.411587 150.329651,49.897564 150.916107,50.725143 
z"/>
<path fill="#7D3536" opacity="1.000000" stroke="none" 
	d="
M96.007484,43.423550 
	C95.975754,44.039204 95.766968,44.383636 95.224312,44.601631 
	C94.595490,44.292912 94.300537,44.110630 94.005585,43.928352 
	C94.005585,43.928352 93.986687,44.000874 94.021164,44.014961 
	C94.647240,43.736809 95.238831,43.444569 96.007484,43.423550 
z"/>
<path fill="#653F41" opacity="1.000000" stroke="none" 
	d="
M50.070053,119.620346 
	C49.614182,119.215836 49.293335,118.459503 48.991302,117.375214 
	C49.408436,117.787682 49.806755,118.528114 50.070053,119.620346 
z"/>
<path fill="#C9A6A6" opacity="1.000000" stroke="none" 
	d="
M92.058701,46.005226 
	C91.397331,46.176620 90.831734,45.898830 90.162094,45.319218 
	C90.414215,44.730438 90.770378,44.443478 91.403870,43.940308 
	C91.681206,43.724094 91.731422,43.734596 91.753387,43.745445 
	C91.901726,44.356213 92.028099,44.956127 92.058701,46.005226 
z"/>
<path fill="#634949" opacity="1.000000" stroke="none" 
	d="
M144.562714,44.867867 
	C144.133865,44.870682 143.638382,44.692276 143.076874,44.244423 
	C143.505905,44.212200 144.000992,44.449425 144.562714,44.867867 
z"/>
<path fill="#7F5454" opacity="1.000000" stroke="none" 
	d="
M121.770332,2.246481 
	C121.838852,2.690647 121.647263,3.060463 121.455681,3.430276 
	C121.305954,3.182401 121.156235,2.934528 120.989082,2.455197 
	C121.151176,2.206536 121.330696,2.189333 121.770332,2.246481 
z"/>
<path fill="#F6F3F3" opacity="1.000000" stroke="none" 
	d="
M75.720459,44.601662 
	C75.848076,44.440994 76.069481,44.417805 76.290878,44.394615 
	C76.131996,44.509460 75.973114,44.624306 75.720459,44.601662 
z"/>
<path fill="#643D3E" opacity="1.000000" stroke="none" 
	d="
M96.276405,156.022278 
	C96.099228,155.790588 96.244179,155.514511 96.663742,155.155502 
	C96.752945,155.336472 96.639679,155.638260 96.276405,156.022278 
z"/>
<path fill="#674344" opacity="1.000000" stroke="none" 
	d="
M87.988228,155.257065 
	C88.174637,155.258301 88.310165,155.508194 88.302727,155.860046 
	C88.085625,155.809921 88.011482,155.657822 87.988228,155.257065 
z"/>
<path fill="#643D3E" opacity="1.000000" stroke="none" 
	d="
M96.899582,95.693108 
	C96.572014,95.889732 96.335686,95.708900 96.087906,95.220047 
	C96.307243,95.143257 96.612038,95.277794 96.899582,95.693108 
z"/>
<path fill="#694647" opacity="1.000000" stroke="none" 
	d="
M53.418179,130.559158 
	C53.609821,130.151489 53.866520,130.099060 54.515930,130.031525 
	C54.433502,130.315735 53.958366,130.615067 53.418179,130.559158 
z"/>
<path fill="#694647" opacity="1.000000" stroke="none" 
	d="
M2.265541,130.998352 
	C2.307551,130.815460 2.581803,130.744568 2.930182,130.843704 
	C2.835468,131.045929 2.666625,131.078125 2.265541,130.998352 
z"/>
<path fill="#653F41" opacity="1.000000" stroke="none" 
	d="
M225.285614,129.956177 
	C225.078033,129.635757 225.233551,129.392563 225.681976,129.118011 
	C225.774429,129.343582 225.665695,129.659149 225.285614,129.956177 
z"/>
<path fill="#653F41" opacity="1.000000" stroke="none" 
	d="
M215.909607,129.304138 
	C216.161224,129.107178 216.450485,129.248398 216.834137,129.671310 
	C216.639130,129.772263 216.312027,129.668701 215.909607,129.304138 
z"/>
<path fill="#7D3536" opacity="1.000000" stroke="none" 
	d="
M115.034973,52.672012 
	C114.762337,52.779060 114.480217,52.577808 114.089828,52.135288 
	C114.329529,52.050583 114.677498,52.207146 115.034973,52.672012 
z"/>
<path fill="#643D3E" opacity="1.000000" stroke="none" 
	d="
M88.704193,94.992561 
	C88.917152,95.332733 88.741776,95.594986 88.252464,95.892532 
	C88.158806,95.653297 88.284576,95.315575 88.704193,94.992561 
z"/>
<path fill="#653F41" opacity="1.000000" stroke="none" 
	d="
M7.734072,96.083176 
	C7.965391,96.120705 7.708623,96.530060 7.708623,96.530060 
	C7.708623,96.530060 7.271093,96.499710 7.171679,96.365341 
	C7.072265,96.230972 7.502753,96.045639 7.734072,96.083176 
z"/>
<path fill="#694647" opacity="1.000000" stroke="none" 
	d="
M29.250002,109.748932 
	C29.299786,109.466454 29.599571,109.432907 29.899357,109.399353 
	C29.766239,109.598854 29.633121,109.798355 29.250002,109.748932 
z"/>
<path fill="#653F41" opacity="1.000000" stroke="none" 
	d="
M49.913109,96.709579 
	C49.589115,96.930626 49.347916,96.778946 49.103580,96.309860 
	C49.329453,96.217712 49.627937,96.332512 49.913109,96.709579 
z"/>
<path fill="#694647" opacity="1.000000" stroke="none" 
	d="
M47.942604,107.585388 
	C47.712738,107.984062 47.437279,107.970345 46.751732,107.877380 
	C46.860104,107.589752 47.378559,107.381371 47.942604,107.585388 
z"/>
<path fill="#7D3536" opacity="1.000000" stroke="none" 
	d="
M111.754791,51.853012 
	C111.744110,52.042339 111.474915,52.190357 111.106720,52.169098 
	C111.170570,51.937119 111.333427,51.874413 111.754791,51.853012 
z"/>
<path fill="#653F41" opacity="1.000000" stroke="none" 
	d="
M49.290604,99.913284 
	C49.069489,99.588486 49.221588,99.346413 49.692329,99.101974 
	C49.784550,99.328835 49.668835,99.627640 49.290604,99.913284 
z"/>
<path fill="#653F41" opacity="1.000000" stroke="none" 
	d="
M119.740509,97.030052 
	C119.731712,97.200287 119.482750,97.319847 119.137299,97.295700 
	C119.040810,97.152008 119.500351,96.979370 119.740509,97.030052 
z"/>
<path fill="#653F41" opacity="1.000000" stroke="none" 
	d="
M148.194275,97.657013 
	C147.980316,97.793816 147.656876,97.667862 147.182556,97.326973 
	C147.382721,97.206116 147.733749,97.300194 148.194275,97.657013 
z"/>
<path fill="#FCFBFB" opacity="1.000000" stroke="none" 
	d="
M197.892334,136.631714 
	C207.713654,132.386917 214.974991,135.761383 215.643692,144.480637 
	C216.194168,151.658325 211.159302,156.819305 203.443069,156.986877 
	C199.061035,157.082016 193.949677,151.416107 194.331406,145.851883 
	C194.540482,142.804581 196.446335,139.873688 197.892334,136.631714 
z"/>
<path fill="#FCFBFB" opacity="1.000000" stroke="none" 
	d="
M35.357933,140.325226 
	C40.007214,142.170990 40.584496,145.720978 39.862324,149.536743 
	C39.131065,153.400528 36.053307,154.782776 32.488430,154.973557 
	C29.347803,155.141617 26.165091,155.232437 23.045656,154.916321 
	C18.672724,154.473175 16.062824,151.926697 16.042681,147.376587 
	C16.023582,143.062347 18.399847,140.387436 22.621471,140.068054 
	C26.716482,139.758224 30.861589,140.110550 35.357933,140.325226 
z"/>
<path fill="#7F6868" opacity="1.000000" stroke="none" 
	d="
M132.949097,12.824005 
	C133.098801,13.287336 133.053772,13.495958 132.877533,13.996701 
	C132.167282,13.752785 131.588257,13.216745 130.985596,12.350146 
	C131.559418,12.202824 132.156891,12.386060 132.949097,12.824005 
z"/>
<path fill="#F8F7F7" opacity="1.000000" stroke="none" 
	d="
M138.747986,127.999161 
	C138.747971,132.818878 138.413040,137.171890 138.835373,141.450165 
	C139.331161,146.472809 137.691620,148.668503 132.546585,147.788086 
	C131.605301,147.627029 130.629913,147.665146 129.329773,147.592224 
	C129.329773,131.990067 129.329773,116.634933 129.329773,101.027817 
	C132.345413,101.027817 135.251892,101.027817 138.748047,101.027817 
	C138.748047,109.978882 138.748047,118.739136 138.747986,127.999161 
z"/>
<path fill="#743B3C" opacity="1.000000" stroke="none" 
	d="
M109.992905,23.985315 
	C112.004417,25.231447 115.006004,26.046497 115.782677,27.830286 
	C116.807213,30.183348 116.661308,33.456612 115.944038,36.035404 
	C115.300438,38.349350 110.825981,37.149010 108.052689,33.236809 
	C109.410858,29.856054 111.245270,27.287754 109.992905,23.985315 
z"/>
<path fill="#7D3536" opacity="1.000000" stroke="none" 
	d="
M109.656982,23.787174 
	C111.245270,27.287754 109.410858,29.856054 107.934814,32.889503 
	C104.989983,32.893997 102.135147,29.035892 102.875420,25.857059 
	C103.752464,22.090956 106.572464,22.667913 109.656982,23.787174 
z"/>
<path fill="#FEFDFD" opacity="1.000000" stroke="none" 
	d="
M96.119827,18.167208 
	C96.816910,17.782049 97.530991,17.745670 98.600044,17.773340 
	C98.529053,20.195822 97.642754,20.642502 96.119827,18.167208 
z"/>
<path fill="#7D3536" opacity="1.000000" stroke="none" 
	d="
M111.528885,55.397644 
	C111.646507,54.941486 111.933578,54.661808 112.238899,54.403717 
	C112.246719,54.397106 112.454773,54.627373 112.569450,54.747177 
	C112.279877,55.023769 111.990303,55.300358 111.528885,55.397644 
z"/>
<path fill="#9E4647" opacity="1.000000" stroke="none" 
	d="
M86.507568,48.326012 
	C85.965034,47.980755 85.639931,47.419830 85.314827,46.858902 
	C85.592911,46.730186 85.871002,46.601471 86.149094,46.472755 
	C86.341057,47.018623 86.533028,47.564484 86.507568,48.326012 
z"/>
<path fill="#F4F2F2" opacity="1.000000" stroke="none" 
	d="
M81.992950,48.643105 
	C81.582840,48.179176 81.250084,47.387859 80.892181,46.255222 
	C81.075272,45.857677 81.283508,45.801449 81.787766,46.117702 
	C82.132576,46.654114 82.181343,46.818050 82.230118,46.981991 
	C82.176849,47.426567 82.123573,47.871143 81.992950,48.643105 
z"/>
<path fill="#9E4647" opacity="1.000000" stroke="none" 
	d="
M82.364319,46.871017 
	C82.181343,46.818050 82.132576,46.654114 82.089798,46.233707 
	C82.230026,46.238174 82.364265,46.499111 82.364319,46.871017 
z"/>
<path fill="#955757" opacity="1.000000" stroke="none" 
	d="
M102.624901,50.356190 
	C103.092216,51.672089 103.299484,53.213501 103.236694,54.978806 
	C102.766045,53.662369 102.565453,52.122036 102.624901,50.356190 
z"/>
<path fill="#FEFDFD" opacity="1.000000" stroke="none" 
	d="
M100.021561,8.990812 
	C100.221970,9.484833 100.447960,9.966443 100.673950,10.448053 
	C100.547493,10.503552 100.328468,10.630073 100.308418,10.603935 
	C99.985718,10.183306 99.688362,9.743240 99.743423,9.134834 
	C100.101601,8.962080 100.047134,8.978403 100.021561,8.990812 
z"/>
<path fill="#F6F3F3" opacity="1.000000" stroke="none" 
	d="
M100.726875,38.251827 
	C100.303955,37.609097 100.124130,36.752872 99.944313,35.896645 
	C100.169968,35.843266 100.395615,35.789886 100.621269,35.736507 
	C100.737503,36.503780 100.853737,37.271057 100.726875,38.251827 
z"/>
<path fill="#FEFDFD" opacity="1.000000" stroke="none" 
	d="
M93.796188,44.320312 
	C94.300537,44.110630 94.595490,44.292912 94.952118,44.738037 
	C94.538124,44.904675 94.062462,44.808472 93.796188,44.320312 
z"/>
</svg>