<!DOCTYPE svg PUBLIC "-//W3C//DTD SVG 1.1//EN" "http://www.w3.org/Graphics/SVG/1.1/DTD/svg11.dtd">
<!-- Uploaded to: SVG Repo, www.svgrepo.com, Transformed by: SVG Repo Mixer Tools -->
<svg version="1.1" id="Layer_1" xmlns="http://www.w3.org/2000/svg" xmlns:xlink="http://www.w3.org/1999/xlink" viewBox="0 0 512 512" xml:space="preserve" width="64px" height="64px" fill="#000000">
<g id="SVGRepo_bgCarrier" stroke-width="0"/>
<g id="SVGRepo_tracerCarrier" stroke-linecap="round" stroke-linejoin="round"/>
<g id="SVGRepo_iconCarrier"> <path style="fill:#D4D4D4;" d="M227.526,173.502c-20.393-11.081-41.417-16.023-68.171-16.023c-25.949,0-47.243,4.893-67.011,15.399 l-15.671-29.485c24.781-13.171,51.054-19.306,82.681-19.306c32.18,0,58.908,6.379,84.113,20.075L227.526,173.502z"/> <path style="fill:#AAAAAA;" d="M352.644,234.759c-32.18,0-58.908-6.379-84.112-20.075l15.943-29.339 c20.392,11.081,41.416,16.023,68.168,16.023c25.952,0,47.244-4.893,67.011-15.398l15.672,29.485 C410.547,228.625,384.274,234.759,352.644,234.759z"/> <rect x="121.173" y="94.814" transform="matrix(-0.7074 -0.7068 0.7068 -0.7074 242.3948 323.3625)" style="fill:#D4D4D4;" width="133.909" height="33.391"/> <rect x="256.886" y="230.645" transform="matrix(-0.7074 -0.7068 0.7068 -0.7074 378.1059 651.2035)" style="fill:#AAAAAA;" width="133.909" height="33.391"/> <path style="fill:#E68D2C;" d="M64.706,244.131L0,179.423l64.706-64.703l64.706,64.703L64.706,244.131z"/> <path style="fill:#E06B34;" d="M447.294,244.131l-64.706-64.708l64.706-64.703L512,179.423L447.294,244.131z"/> <path style="fill:#E68D2C;" d="M256,244.132l-64.705-64.709L256,114.72l64.705,64.705L256,244.132z"/> <path style="fill:#E06B34;" d="M256,244.132V114.718l64.705,64.705L256,244.132z"/> <path style="fill:#80CDD8;" d="M121.087,89.034c-11.893,0-23.072-4.631-31.482-13.042c-17.358-17.359-17.358-45.605,0-62.963 c17.359-17.359,45.605-17.358,62.964-0.001c8.41,8.411,13.04,19.592,13.04,31.482c0,11.893-4.631,23.072-13.04,31.481 C144.159,84.403,132.979,89.034,121.087,89.034z"/> <path style="fill:#5293A9;" d="M390.914,358.84c-11.401,0-22.802-4.34-31.481-13.019c-8.41-8.409-13.04-19.591-13.04-31.481 c0-11.893,4.63-23.073,13.04-31.482c8.408-8.409,19.588-13.039,31.481-13.039c11.892,0,23.072,4.63,31.48,13.039l0,0 c8.41,8.409,13.042,19.591,13.042,31.482s-4.631,23.072-13.042,31.481C413.715,354.499,402.314,358.84,390.914,358.84z"/> <polygon style="fill:#E68D2C;" points="150.29,460.153 129.231,511.989 217.043,511.989 304.856,511.989 283.797,460.153 283.797,439.378 150.254,439.378 "/> <polygon style="fill:#E06B34;" points="217.043,511.989 304.856,511.989 283.797,460.153 283.797,439.378 217.043,439.378 "/> <polygon style="fill:#A8EAEF;" points="217.043,237.433 109.035,383.786 150.29,460.153 283.797,460.153 325.052,383.786 "/> <g> <polygon style="fill:#80CDD8;" points="217.043,237.433 217.043,460.153 283.797,460.153 325.052,383.786 "/> <polygon style="fill:#80CDD8;" points="208.09,367.777 225.997,367.777 225.997,249.565 217.043,237.433 208.09,249.565 "/> </g> <polygon style="fill:#5293A9;" points="217.043,367.777 225.997,367.777 225.997,249.565 217.043,237.433 "/> <circle style="fill:#80CDD8;" cx="217.043" cy="368.229" r="27.715"/> <path style="fill:#5293A9;" d="M244.758,368.234c0,15.307-12.408,27.715-27.715,27.715v-55.43 C232.35,340.519,244.758,352.928,244.758,368.234z"/> </g>
</svg>