<!DOCTYPE svg PUBLIC "-//W3C//DTD SVG 1.1//EN" "http://www.w3.org/Graphics/SVG/1.1/DTD/svg11.dtd">
<!-- Uploaded to: SVG Repo, www.svgrepo.com, Transformed by: SVG Repo Mixer Tools -->
<svg width="64px" height="64px" viewBox="0 0 64 64" xmlns="http://www.w3.org/2000/svg" stroke-width="3" stroke="#000000" fill="none">
<g id="SVGRepo_bgCarrier" stroke-width="0"/>
<g id="SVGRepo_tracerCarrier" stroke-linecap="round" stroke-linejoin="round"/>
<g id="SVGRepo_iconCarrier">
<rect x="9.19" y="11.28" width="47.34" height="34.38" rx="2.02"/>
<line x1="9.19" y1="39.12" x2="56.53" y2="39.12"/>
<path d="M23.92,53.64a6.67,6.67,0,0,0,3.54-8"/>
<path d="M42.7,53.64a6.67,6.67,0,0,1-3.54-8"/>
<line x1="18.36" y1="53.64" x2="47.36" y2="53.64" stroke-linecap="round"/>
<path d="M29.68,31.44V19.78a.27.27,0,0,1,.41-.23l9.17,5.83a.27.27,0,0,1,0,.46l-9.17,5.82A.26.26,0,0,1,29.68,31.44Z"/>
</g>
</svg>