<!DOCTYPE svg PUBLIC "-//W3C//DTD SVG 1.1//EN" "http://www.w3.org/Graphics/SVG/1.1/DTD/svg11.dtd">
<!-- Uploaded to: SVG Repo, www.svgrepo.com, Transformed by: SVG Repo Mixer Tools -->
<svg fill="#000000" height="64px" width="64px" version="1.1" id="Layer_1" xmlns="http://www.w3.org/2000/svg" xmlns:xlink="http://www.w3.org/1999/xlink" viewBox="0 0 508.039 508.039" xml:space="preserve">
<g id="SVGRepo_bgCarrier" stroke-width="0"/>
<g id="SVGRepo_tracerCarrier" stroke-linecap="round" stroke-linejoin="round"/>
<g id="SVGRepo_iconCarrier"> <g> <g> <path d="M466.539,0.02h-191.9c-22.9,0-41.6,18.6-41.6,41.5v129.9c0,22.9,18.6,41.5,41.5,41.5h4.2v59c0,5.7,3.5,10.7,8.7,13 c3.5,1.5,10.8,1,15.4-3.1l69-69h94.7c22.9,0,41.5-18.6,41.5-41.5V41.52C508.039,18.62,489.439,0.02,466.539,0.02z M479.839,171.42 c0,7.3-6,13.3-13.3,13.3h-100.5c-3.7,0-7.3,1.5-10,4.1l-49,49v-39c0-7.8-6.3-14.1-14.1-14.1h-18.3c-7.3,0-13.3-6-13.3-13.3V41.52 c0-7.3,6-13.3,13.3-13.3h191.9c7.3,0,13.3,6,13.3,13.3V171.42z"/> </g> </g> <g> <g> <path d="M140.739,149.82c-37.5,0-68,30.5-68,68c-0.1,37.4,30.4,68,68,68c37.5,0,68-30.5,68-68S178.239,149.82,140.739,149.82z M140.739,257.52c-21.9,0-39.8-17.9-39.8-39.8c0-21.9,17.8-39.8,39.8-39.8c21.9,0,39.8,17.9,39.8,39.8 C180.539,239.62,162.639,257.52,140.739,257.52z"/> </g> </g> <g> <g> <path d="M281.239,373.32c-0.1-22-14.1-41.7-34.7-49.1c-33.7-12.1-69.3-18.2-105.9-18.2c-36.6,0-72.2,6.1-105.9,18.2 c-20.6,7.4-34.6,27.1-34.7,49c-0.1,27.2,0,92.5,0.2,120.8c0,7.8,6.3,14,14.1,14h252.7c7.8,0,14.1-6.3,14.1-14 C281.239,465.82,281.339,400.52,281.239,373.32z M252.939,479.82h-224.6c-0.1-31.9-0.2-83.2-0.1-106.4c0-10.1,6.5-19.1,16-22.5 c30.6-10.9,63-16.5,96.4-16.5c33.4,0,65.8,5.6,96.4,16.5c9.5,3.4,15.9,12.5,16,22.5C253.139,396.62,253.039,447.92,252.939,479.82 z"/> </g> </g> <g> <g> <path d="M371.339,46.92c-13.2,0-24.9,7.9-29.8,20.2c-1.5,3.7,0.3,7.9,4,9.4s7.9-0.3,9.4-4c2.7-6.8,9.2-11.1,16.4-11.1 c9.8,0,17.7,7.9,17.7,17.7c0,11.8-7,13.9-8.3,14.8c-9.2,7-19.7,14.9-19.7,37.3c0,4,3.2,7.2,7.2,7.2s7.2-3.2,7.2-7.2 c0-15.2,5.5-19.4,13.9-25.7c1.3-1,14-8.4,14-26.3C403.439,61.32,389.039,46.92,371.339,46.92z"/> </g> </g> <g> <g> <circle cx="368.439" cy="152.22" r="9.5"/> </g> </g> </g>
</svg>